<svg width="24" height="24" viewBox="0 0 24 24" fill="none" xmlns="http://www.w3.org/2000/svg">
<path d="M11.99 1.99997C10.0122 1.99997 8.07876 2.58646 6.43427 3.68527C4.78978 4.78409 3.5081 6.34593 2.75122 8.17319C1.99435 10.0004 1.79628 12.0111 2.18213 13.9509C2.56799 15.8907 3.52042 17.6725 4.91895 19.071C6.31747 20.4695 8.09926 21.422 10.0391 21.8078C11.9789 22.1937 13.9896 21.9956 15.8168 21.2387C17.6441 20.4819 19.2059 19.2002 20.3047 17.5558C21.4035 15.9113 21.99 13.9778 21.99 12C21.99 9.3478 20.9364 6.80429 19.061 4.92892C17.1857 3.05356 14.6422 1.99997 11.99 1.99997ZM11.99 21C10.21 21 8.46991 20.4722 6.98987 19.4832C5.50983 18.4943 4.35624 17.0887 3.67505 15.4442C2.99386 13.7996 2.81564 11.9901 3.16291 10.2442C3.51017 8.4984 4.36737 6.89475 5.62604 5.63608C6.88471 4.37741 8.48837 3.52021 10.2342 3.17294C11.98 2.82568 13.7896 3.00384 15.4341 3.68503C17.0787 4.36622 18.4843 5.5198 19.4732 6.99985C20.4621 8.47989 20.99 10.2199 20.99 12C20.99 14.3869 20.0418 16.6762 18.3539 18.364C16.6661 20.0518 14.3769 21 11.99 21Z" fill="#882A00"/>
<path d="M15.5354 14.7719L12.7636 12L15.5355 9.22812C15.6368 9.12685 15.6937 8.98952 15.6937 8.8463C15.6937 8.70308 15.6368 8.56571 15.5355 8.46444C15.4343 8.36317 15.2969 8.3063 15.1537 8.3063C15.0105 8.3063 14.8731 8.36317 14.7718 8.46444L11.9999 11.2363L9.22807 8.46448C9.1268 8.36321 8.98951 8.30626 8.84629 8.30626C8.70307 8.30626 8.56574 8.36317 8.46447 8.46444C8.3632 8.56571 8.30629 8.70304 8.30629 8.84626C8.30629 8.98947 8.36315 9.12685 8.46442 9.22812L11.2363 12L8.46438 14.7719C8.36311 14.8731 8.30625 15.0105 8.30625 15.1537C8.30625 15.2969 8.3632 15.4342 8.46447 15.5355C8.56574 15.6368 8.70303 15.6937 8.84625 15.6937C8.98946 15.6937 9.1268 15.6368 9.22807 15.5355L12 12.7637L14.7718 15.5355C14.8731 15.6368 15.0105 15.6937 15.1537 15.6937C15.2969 15.6937 15.4343 15.6368 15.5355 15.5355C15.6368 15.4342 15.6937 15.2969 15.6937 15.1537C15.6937 15.0105 15.6367 14.8731 15.5354 14.7719Z" fill="#882A00"/>
</svg>
