<svg width="20" height="20" viewBox="0 0 20 20" fill="none" xmlns="http://www.w3.org/2000/svg">
<path d="M4.44428 1.6853C6.08877 0.586489 8.02219 0 10 0C12.6522 0 15.1957 1.05359 17.071 2.92896C18.9464 4.80432 20 7.34784 20 10C20 11.9778 19.4135 13.9113 18.3147 15.5558C17.2159 17.2003 15.6541 18.4819 13.8268 19.2388C11.9996 19.9956 9.98889 20.1937 8.04908 19.8079C6.10927 19.422 4.32748 18.4696 2.92896 17.071C1.53043 15.6725 0.577995 13.8907 0.192143 11.9509C-0.193709 10.0111 0.00435829 8.00048 0.761235 6.17322C1.51811 4.34596 2.79979 2.78412 4.44428 1.6853Z" fill="#0F3D4C"/>
<path d="M8.1033 12.6738L6.01811 10.7255C5.78576 10.5084 5.41638 10.5084 5.18403 10.7255C4.95168 10.9426 4.95168 11.2877 5.18403 11.5048L7.68031 13.8372C7.91266 14.0543 8.28799 14.0543 8.52034 13.8372L14.8355 7.94218C15.0679 7.72508 15.0679 7.37995 14.8355 7.16285C14.6032 6.94576 14.2338 6.94576 14.0014 7.16285L8.1033 12.6738Z" fill="white"/>
</svg>
