<svg width="93" height="60" viewBox="0 0 93 60" fill="none" xmlns="http://www.w3.org/2000/svg">
<path d="M46.8868 13.7296L29.5358 13.8576C29.5358 13.8576 32.0878 15.3886 32.0878 19.1326C32.0878 22.8756 29.0248 25.9386 24.9418 26.1086C20.8578 26.2786 17.3948 23.2716 17.1358 19.9006C16.8878 16.6776 18.9858 13.5176 18.9858 13.5176L1.7998 13.8576V58.7786H46.5518" stroke="#0E3D4B" stroke-width="2" stroke-linecap="round" stroke-linejoin="round"/>
<path fill-rule="evenodd" clip-rule="evenodd" d="M47.0031 58.7788H91.9241V14.0278H74.5671C74.5671 14.0278 77.4611 11.1348 76.9511 6.54081C76.4401 1.94582 71.9411 0.795815 69.6281 0.799815C67.3611 0.802815 62.6571 1.94582 62.4861 6.88082C62.3161 11.8158 65.0401 13.6868 65.0401 13.6868H47.0031V31.0428C47.0031 31.0428 48.5341 28.4908 52.2771 28.4908C56.0211 28.4908 59.0841 31.5538 59.2541 35.6378C59.4241 39.7208 56.4181 43.1838 53.0461 43.4438C49.8231 43.6918 46.6631 41.5928 46.6631 41.5928L47.0031 58.7788Z" stroke="#0E3D4B" stroke-width="2" stroke-linecap="round" stroke-linejoin="round"/>
</svg>
