<svg width="92" height="80" viewBox="0 0 92 80" fill="none" xmlns="http://www.w3.org/2000/svg">
<path fill-rule="evenodd" clip-rule="evenodd" d="M16.6281 31.5451H17.3616C16.8787 36.1708 12.1955 39 12.1955 39C19.9401 38.8865 23.0584 33.9425 24.1153 31.5451H45.3719C54.0032 31.5451 61 24.7073 61 16.2726C61 7.83782 54.0032 1 45.3719 1H16.6281C7.99677 1 1 7.83782 1 16.2726C1 24.7073 7.99677 31.5451 16.6281 31.5451Z" fill="white"/>
<path fill-rule="evenodd" clip-rule="evenodd" d="M16.6281 31.5451H17.3616C16.8787 36.1708 12.1955 39 12.1955 39C19.9401 38.8865 23.0584 33.9425 24.1153 31.5451H45.3719C54.0032 31.5451 61 24.7073 61 16.2726C61 7.83782 54.0032 1 45.3719 1H16.6281C7.99677 1 1 7.83782 1 16.2726C1 24.7073 7.99677 31.5451 16.6281 31.5451Z" stroke="#0F3D4C" stroke-width="2" stroke-linecap="round" stroke-linejoin="round"/>
<path fill-rule="evenodd" clip-rule="evenodd" d="M26 16.5C26 17.8807 24.8807 19 23.5 19C22.1193 19 21 17.8807 21 16.5C21 15.1193 22.1193 14 23.5 14C24.8807 14 26 15.1193 26 16.5Z" fill="#0F3D4C"/>
<path fill-rule="evenodd" clip-rule="evenodd" d="M34 16.5C34 17.8807 32.8807 19 31.5 19C30.1193 19 29 17.8807 29 16.5C29 15.1226 30.1144 14.0043 31.4919 14C32.8726 13.9957 33.9954 15.1112 34 16.4919V16.5Z" fill="#0F3D4C"/>
<path fill-rule="evenodd" clip-rule="evenodd" d="M42 16.5C42 17.8807 40.8807 19 39.5 19C38.1193 19 37 17.8807 37 16.5C37 15.1193 38.1193 14 39.5 14C40.8807 14 42 15.1193 42 16.5Z" fill="#0F3D4C"/>
<path fill-rule="evenodd" clip-rule="evenodd" d="M75.1097 71.5409H74.3842C74.8694 76.17 79.5769 79 79.5769 79C71.7963 78.884 68.6609 73.9412 67.5991 71.5409H46.2367C37.5693 71.2916 30.7505 64.2527 31.007 55.8195C31.2528 47.7365 37.9295 41.2403 46.2367 41.0011H75.1097C83.7805 40.8994 90.8943 47.6559 90.9988 56.0922C91.1034 64.5288 84.159 71.4503 75.4882 71.5521C75.3623 71.5536 75.236 71.5536 75.1097 71.5521V71.5409Z" fill="white"/>
<path fill-rule="evenodd" clip-rule="evenodd" d="M75.1097 71.5409H74.3842C74.8694 76.17 79.5769 79 79.5769 79C71.7963 78.884 68.6609 73.9412 67.5991 71.5409H46.2367C37.5693 71.2916 30.7505 64.2527 31.007 55.8195C31.2528 47.7365 37.9295 41.2403 46.2367 41.0011H75.1097C83.7805 40.8994 90.8943 47.6559 90.9988 56.0922C91.1034 64.5288 84.159 71.4503 75.4882 71.5521C75.3623 71.5536 75.236 71.5536 75.1097 71.5521V71.5409Z" stroke="#0F3D4C" stroke-width="2" stroke-linecap="round" stroke-linejoin="round"/>
<path fill-rule="evenodd" clip-rule="evenodd" d="M54 54.5001C54 55.8809 52.8807 57 51.5 57C50.1193 57 49 55.8809 49 54.5001C49 53.1191 50.1193 52 51.5 52C52.8801 52.0014 53.9984 53.1196 54 54.5001Z" fill="#0F3D4C"/>
<path fill-rule="evenodd" clip-rule="evenodd" d="M63 54.5001C63 55.8809 61.8807 57 60.5 57C59.119 57 58 55.8809 58 54.5001C58 53.1191 59.119 52 60.5 52C61.8793 52.003 62.9968 53.1205 63 54.5001Z" fill="#0F3D4C"/>
<path fill-rule="evenodd" clip-rule="evenodd" d="M71 54.5001C71 55.8809 69.8807 57 68.5 57C67.1193 57 66 55.8809 66 54.5001C66 53.1191 67.1193 52 68.5 52C69.8793 52.003 70.997 53.1205 71 54.5001Z" fill="#0F3D4C"/>
</svg>
