<svg width="78" height="58" viewBox="0 0 78 58" fill="none" xmlns="http://www.w3.org/2000/svg">
<path fill-rule="evenodd" clip-rule="evenodd" d="M32.7207 31.0068H45.5817V15.5728H32.7207V31.0068Z" stroke="#0F3D4C" stroke-width="2" stroke-linecap="round" stroke-linejoin="round"/>
<path d="M2.71191 34.2348L10.5009 10.0558C10.5109 10.0218 10.5219 9.98882 10.5309 9.95582C12.4789 3.12882 18.8739 -0.591182 24.8139 1.64882C27.2229 2.55682 29.2959 4.36782 30.7029 6.79182C30.7469 6.88182 30.7959 6.96882 30.8489 7.05182C31.9779 9.09482 32.5759 11.4648 32.5749 13.8838L32.7209 40.4378C32.5649 40.1628 32.4089 39.8928 32.2539 39.6268" stroke="#0F3D4C" stroke-width="2"/>
<path d="M1.68848 36.2198L10.5005 10.0558C10.5105 10.0218 10.5215 9.98882 10.5305 9.95582C12.4785 3.12882 18.8735 -0.591182 24.8135 1.64882C27.2225 2.55682 29.2955 4.36782 30.7025 6.79182C30.7465 6.88282 30.7955 6.96882 30.8485 7.05282C31.9775 9.09482 32.5755 11.4658 32.5745 13.8848L32.7205 40.4378" stroke="#0F3D4C" stroke-width="2" stroke-linecap="round" stroke-linejoin="round"/>
<path d="M45.583 38.7231L45.728 13.3051C45.728 6.51808 50.801 0.997075 57.037 0.997075C59.045 0.995075 61.018 1.58308 62.75 2.69908C62.866 2.79408 62.989 2.87708 63.118 2.94708C65.32 4.49308 66.965 6.83208 67.773 9.56408C67.782 9.59708 67.793 9.62908 67.803 9.66008L75.592 32.7921" stroke="#0F3D4C" stroke-width="2"/>
<path d="M45.583 40.8666L45.728 13.3046C45.728 6.51756 50.801 0.997564 57.037 0.997564C59.045 0.995564 61.018 1.58356 62.75 2.69956C62.866 2.79456 62.989 2.87756 63.118 2.94756C65.32 4.49256 66.965 6.83256 67.773 9.56356C67.782 9.59656 67.793 9.62956 67.803 9.65956L76.061 34.6926" stroke="#0F3D4C" stroke-width="2" stroke-linecap="round" stroke-linejoin="round"/>
<path d="M61.445 30.0064C55.4467 30.0064 50.585 34.8692 50.585 40.8664H52.585C52.585 35.9736 56.5514 32.0064 61.445 32.0064V30.0064ZM50.585 40.8664C50.585 46.8656 55.4467 51.7274 61.445 51.7274V49.7274C56.5514 49.7274 52.585 45.7612 52.585 40.8664H50.585ZM61.445 51.7274C67.4434 51.7274 72.305 46.8656 72.305 40.8664H70.305C70.305 45.7612 66.3387 49.7274 61.445 49.7274V51.7274ZM72.305 40.8664C72.305 34.8692 67.4434 30.0064 61.445 30.0064V32.0064C66.3387 32.0064 70.305 35.9736 70.305 40.8664H72.305ZM61.445 26.0044C69.6527 26.0044 76.307 32.6596 76.307 40.8664H78.307C78.307 31.5552 70.7573 24.0044 61.445 24.0044V26.0044ZM76.307 40.8664C76.307 49.0752 69.6527 55.7294 61.445 55.7294V57.7294C70.7573 57.7294 78.307 50.1796 78.307 40.8664H76.307ZM61.445 55.7294C53.2373 55.7294 46.583 49.0752 46.583 40.8664H44.583C44.583 50.1796 52.1327 57.7294 61.445 57.7294V55.7294ZM46.583 40.8664C46.583 32.6596 53.2373 26.0044 61.445 26.0044V24.0044C52.1327 24.0044 44.583 31.5552 44.583 40.8664H46.583Z" fill="#0F3D4C"/>
<path d="M61.445 30.0064C55.4467 30.0064 50.585 34.8692 50.585 40.8664H52.585C52.585 35.9736 56.5514 32.0064 61.445 32.0064V30.0064ZM50.585 40.8664C50.585 46.8656 55.4467 51.7274 61.445 51.7274V49.7274C56.5514 49.7274 52.585 45.7612 52.585 40.8664H50.585ZM61.445 51.7274C67.4434 51.7274 72.305 46.8656 72.305 40.8664H70.305C70.305 45.7612 66.3387 49.7274 61.445 49.7274V51.7274ZM72.305 40.8664C72.305 34.8692 67.4434 30.0064 61.445 30.0064V32.0064C66.3387 32.0064 70.305 35.9736 70.305 40.8664H72.305ZM61.445 26.0044C69.6527 26.0044 76.307 32.6596 76.307 40.8664H78.307C78.307 31.5552 70.7573 24.0044 61.445 24.0044V26.0044ZM76.307 40.8664C76.307 49.0752 69.6527 55.7294 61.445 55.7294V57.7294C70.7573 57.7294 78.307 50.1796 78.307 40.8664H76.307ZM61.445 55.7294C53.2373 55.7294 46.583 49.0752 46.583 40.8664H44.583C44.583 50.1796 52.1327 57.7294 61.445 57.7294V55.7294ZM46.583 40.8664C46.583 32.6596 53.2373 26.0044 61.445 26.0044V24.0044C52.1327 24.0044 44.583 31.5552 44.583 40.8664H46.583Z" fill="#0F3D4C"/>
<path d="M16.8591 30.0064C10.8607 30.0064 5.99907 34.8692 5.99907 40.8664H7.99907C7.99907 35.9736 11.9654 32.0064 16.8591 32.0064V30.0064ZM5.99907 40.8664C5.99907 46.8656 10.8607 51.7274 16.8591 51.7274V49.7274C11.9654 49.7274 7.99907 45.7612 7.99907 40.8664H5.99907ZM16.8591 51.7274C22.8574 51.7274 27.7191 46.8656 27.7191 40.8664H25.7191C25.7191 45.7612 21.7527 49.7274 16.8591 49.7274V51.7274ZM27.7191 40.8664C27.7191 34.8692 22.8574 30.0064 16.8591 30.0064V32.0064C21.7527 32.0064 25.7191 35.9736 25.7191 40.8664H27.7191ZM16.8591 26.0044C25.0667 26.0044 31.7211 32.6596 31.7211 40.8664H33.7211C33.7211 31.5552 26.1714 24.0044 16.8591 24.0044V26.0044ZM31.7211 40.8664C31.7211 49.0752 25.0667 55.7294 16.8591 55.7294V57.7294C26.1714 57.7294 33.7211 50.1796 33.7211 40.8664H31.7211ZM16.8591 55.7294C8.6514 55.7294 1.99707 49.0752 1.99707 40.8664H-0.00292969C-0.00292969 50.1796 7.54674 57.7294 16.8591 57.7294V55.7294ZM1.99707 40.8664C1.99707 32.6596 8.6514 26.0044 16.8591 26.0044V24.0044C7.54674 24.0044 -0.00292969 31.5552 -0.00292969 40.8664H1.99707Z" fill="#0F3D4C"/>
<path d="M16.8591 30.0064C10.8607 30.0064 5.99907 34.8692 5.99907 40.8664H7.99907C7.99907 35.9736 11.9654 32.0064 16.8591 32.0064V30.0064ZM5.99907 40.8664C5.99907 46.8656 10.8607 51.7274 16.8591 51.7274V49.7274C11.9654 49.7274 7.99907 45.7612 7.99907 40.8664H5.99907ZM16.8591 51.7274C22.8574 51.7274 27.7191 46.8656 27.7191 40.8664H25.7191C25.7191 45.7612 21.7527 49.7274 16.8591 49.7274V51.7274ZM27.7191 40.8664C27.7191 34.8692 22.8574 30.0064 16.8591 30.0064V32.0064C21.7527 32.0064 25.7191 35.9736 25.7191 40.8664H27.7191ZM16.8591 26.0044C25.0667 26.0044 31.7211 32.6596 31.7211 40.8664H33.7211C33.7211 31.5552 26.1714 24.0044 16.8591 24.0044V26.0044ZM31.7211 40.8664C31.7211 49.0752 25.0667 55.7294 16.8591 55.7294V57.7294C26.1714 57.7294 33.7211 50.1796 33.7211 40.8664H31.7211ZM16.8591 55.7294C8.6514 55.7294 1.99707 49.0752 1.99707 40.8664H-0.00292969C-0.00292969 50.1796 7.54674 57.7294 16.8591 57.7294V55.7294ZM1.99707 40.8664C1.99707 32.6596 8.6514 26.0044 16.8591 26.0044V24.0044C7.54674 24.0044 -0.00292969 31.5552 -0.00292969 40.8664H1.99707Z" fill="#0F3D4C"/>
</svg>
