<svg width="466" height="370" viewBox="0 0 466 370" fill="none" xmlns="http://www.w3.org/2000/svg">
<path d="M32.3238 148.219L116.232 154.761L116.402 326.221L25.7155 333.202L32.3238 148.219ZM79.7033 278.814L98.7722 278.375C99.65 215.481 101.503 200.157 89.4816 191.605C74.2411 195.118 79.7033 278.814 79.7033 278.814ZM67.3646 280.571C67.3646 280.571 67.9011 214.996 66.8769 206.767C65.8528 198.539 56.4159 190.333 56.4159 190.333C56.4159 190.333 46.2231 197.591 45.711 207.969C45.1989 218.371 45.4427 287.621 45.4427 287.621L67.3646 280.571Z" fill="white"/>
<path d="M32.3238 148.219L116.232 154.761L116.402 326.221L25.7155 333.202L32.3238 148.219ZM79.7033 278.814L98.7722 278.375C99.65 215.481 101.503 200.157 89.4816 191.605C74.2411 195.118 79.7033 278.814 79.7033 278.814ZM67.3646 280.571C67.3646 280.571 67.9011 214.996 66.8769 206.767C65.8528 198.539 56.4159 190.333 56.4159 190.333C56.4159 190.333 46.2231 197.591 45.711 207.969C45.1989 218.371 45.4427 287.621 45.4427 287.621L67.3646 280.571Z" stroke="#0F3D4C" stroke-width="2" stroke-miterlimit="10" stroke-linejoin="round"/>
<path d="M198.555 45.3386C186.996 121.962 143.591 357.841 33.8602 150.947" stroke="#0F3D4C" stroke-width="2" stroke-linecap="round" stroke-linejoin="round"/>
<path d="M335.597 62.605C328.013 138.812 171.292 286.812 115.841 156.541" stroke="#0F3D4C" stroke-width="2" stroke-linecap="round" stroke-linejoin="round"/>
<path d="M24.9841 300.796L114.427 294.208L337.792 242.941L239.35 221.977L26.0082 290.071L24.9841 300.796Z" fill="#B8DEE6"/>
<path d="M24.9841 300.796L114.427 294.208L337.792 242.941L239.35 221.977L26.0082 290.071L24.9841 300.796Z" stroke="#0F3D4C" stroke-width="2" stroke-miterlimit="10"/>
<path d="M1.57523 305.072L186.85 265.57L289.071 250.199L203.164 234.389L2.11166 297.236L1.57523 305.072Z" fill="white"/>
<path d="M1.57522 305.072L186.85 265.57L289.071 250.199L203.164 234.389L2.11167 297.236L1.57522 305.072Z" stroke="#0F3D4C" stroke-width="2" stroke-miterlimit="10" stroke-linejoin="round"/>
<path d="M24.9841 300.796L113.866 294.717L337.792 242.941L242.52 243.542L24.9841 300.796Z" fill="#0F3D4C"/>
<path d="M24.9841 300.796L113.866 294.717L337.792 242.941L242.52 243.542L24.9841 300.796Z" stroke="#0F3D4C" stroke-width="2" stroke-miterlimit="10" stroke-linejoin="round"/>
<path d="M224.866 22.3171L339.158 60.1549L348.424 348.087L225.915 368.173L224.866 22.3171ZM289.364 133.889C289.315 139.644 289.364 205.843 289.364 213.771H317.577C317.577 195.95 317.748 144.914 317.626 137.194C317.333 120.02 308.335 99.5182 301.727 93.7628C295.606 96.3053 289.51 115.467 289.364 133.889ZM237.229 120.922C236.864 125.036 235.937 195.765 235.937 211.691V225.259L267.466 214.834C267.466 203.74 267.637 143.366 267.515 124.782C267.369 99.9573 259.858 85.511 256.176 79.1547C255.25 80.1486 239.912 90.7117 237.229 120.922Z" fill="white"/>
<path d="M224.866 22.3171L339.158 60.1549L348.424 348.087L225.915 368.173L224.866 22.3171ZM289.364 133.889C289.315 139.644 289.364 205.843 289.364 213.771H317.577C317.577 195.95 317.748 144.914 317.626 137.194C317.333 120.02 308.335 99.5182 301.727 93.7628C295.606 96.3053 289.51 115.467 289.364 133.889ZM237.229 120.922C236.864 125.036 235.937 195.765 235.937 211.691V225.259L267.466 214.834C267.466 203.74 267.637 143.366 267.515 124.782C267.369 99.9573 259.858 85.511 256.176 79.1547C255.25 80.1486 239.912 90.7117 237.229 120.922Z" stroke="#0F3D4C" stroke-width="2" stroke-miterlimit="10" stroke-linejoin="round"/>
<path d="M203.262 359.69L226.525 368.173L224.745 21.9243L198.604 44.9691L203.262 359.69Z" fill="white"/>
<path d="M203.262 359.691L226.525 368.173L224.745 21.9243L198.604 44.9691L203.262 359.691Z" stroke="#0F3D4C" stroke-width="2" stroke-miterlimit="10" stroke-linejoin="round"/>
<path d="M14.3037 326.059L25.3012 333.618L31.7388 148.474L19.4001 161.002L14.3037 326.059Z" fill="white"/>
<path d="M14.3037 326.059L25.3012 333.618L31.7388 148.474L19.4001 161.002L14.3037 326.059Z" stroke="#0F3D4C" stroke-width="2" stroke-miterlimit="10" stroke-linejoin="round"/>
<path d="M225.719 22.2015L475.687 1.44507" stroke="#0F3D4C" stroke-width="2" stroke-linecap="round" stroke-linejoin="round"/>
<path d="M339.889 60.4091L480.882 40.739" stroke="#0F3D4C" stroke-width="2" stroke-linecap="round" stroke-linejoin="round"/>
<path d="M236.522 247.587L317.309 244.929L482.198 207.484L476.297 142.949L235.986 224.196L236.522 247.587Z" fill="white"/>
<path d="M236.522 247.587L317.309 244.929L482.198 207.484L476.297 142.949L235.986 224.196L236.522 247.587Z" stroke="#0F3D4C" stroke-width="2" stroke-miterlimit="10" stroke-linejoin="round"/>
<path d="M28.204 283.345L201.896 224.912" stroke="#0F3D4C" stroke-width="2" stroke-miterlimit="10"/>
<path d="M236.351 214.511L472.834 130.098" stroke="#0F3D4C" stroke-width="2" stroke-miterlimit="10"/>
<path d="M237.278 246.778L317.309 245.368L482.979 206.675L478.321 179.47L237.278 246.778Z" fill="#0F3D4C"/>
<path d="M237.278 246.778L317.309 245.368L482.979 206.675L478.321 179.47L237.278 246.778Z" stroke="#0F3D4C" stroke-width="2" stroke-miterlimit="10" stroke-linejoin="round"/>
</svg>
