<svg xmlns="http://www.w3.org/2000/svg" width="71" height="73" viewBox="0 0 71 73" fill="none"><path d="M20.7121 9.11121V13.9295" stroke="#0F3D4C" stroke-width="2"></path><path d="M20.7121 9.11121V13.9295" stroke="#0F3D4C" stroke-width="2"></path><path d="M54.3761 9.11121V14.2729" stroke="#0F3D4C" stroke-width="2"></path><path d="M54.3761 9.11121V14.2729" stroke="#0F3D4C" stroke-width="2"></path><path fill-rule="evenodd" clip-rule="evenodd" d="M13.3359 47.3433H61.3379V14.5757H13.3359V47.3433Z" stroke="#0F3D4C" stroke-width="2"></path><mask id="mask0" style="mask-type:alpha" maskUnits="userSpaceOnUse" x="12" y="13" width="51" height="36"><path fill-rule="evenodd" clip-rule="evenodd" d="M13.3359 14.5748H61.3389V47.3433H13.3359V14.5748Z" fill="white" stroke="white" stroke-width="2"></path></mask><g mask="url(#mask0)"><path fill-rule="evenodd" clip-rule="evenodd" d="M72.371 23.4883L8.72809 56.1492L0.523438 40.1621L64.1663 7.50128L72.371 23.4883Z" fill="#0F3D4C" stroke="#0F3D4C" stroke-width="2"></path></g><path fill-rule="evenodd" clip-rule="evenodd" d="M13.3359 47.3433H61.3389V14.5748H13.3359V47.3433Z" stroke="#0F3D4C" stroke-width="2"></path><path fill-rule="evenodd" clip-rule="evenodd" d="M13.3359 47.3433H61.3379V14.5757H13.3359V47.3433Z" stroke="#0F3D4C" stroke-width="2"></path><path fill-rule="evenodd" clip-rule="evenodd" d="M1 8.09412H69.3322V1.95618H1V8.09412Z" stroke="#0F3D4C" stroke-width="2"></path><path fill-rule="evenodd" clip-rule="evenodd" d="M1.03516 71.0438H7.1731V1.99332H1.03516V71.0438Z" stroke="#0F3D4C" stroke-width="2"></path></svg>