<svg width="70" height="129" viewBox="0 0 70 129" fill="none" xmlns="http://www.w3.org/2000/svg">
<path fill-rule="evenodd" clip-rule="evenodd" d="M42.7693 58.4827C43.4251 56.9593 42.6345 55.2197 41.0078 54.6063C39.3793 53.9912 37.52 54.7324 36.8625 56.2559L25 83.8014L30.9051 86.0282L42.7693 58.4827Z" fill="white" stroke="white" stroke-width="2.002"/>
<path fill-rule="evenodd" clip-rule="evenodd" d="M22.181 122.184L33.877 89.3764C34.2682 88.2765 33.697 87.0733 32.5778 86.6378L23.7675 83.2205C22.6482 82.7866 21.3705 83.273 20.8604 84.3268L5.62015 115.875C3.83068 120.16 6.04276 125.164 10.5973 126.933C15.1519 128.699 20.3486 126.567 22.181 122.184Z" stroke="white" stroke-width="2.002"/>
<path d="M31 95.9152L27.4358 94.56L21.5659 92.327L18 90.9717" stroke="white" stroke-width="2.002"/>
<path fill-rule="evenodd" clip-rule="evenodd" d="M68.992 79.5386L68.7192 8.08715C68.5811 5.24718 66.8077 2.82637 64.0811 1.67563C63.9879 1.63638 63.9014 1.58614 63.805 1.55003C63.7966 1.54689 63.7867 1.54218 63.7767 1.53904C60.872 0.444815 57.6713 1.03667 55.3655 3.13093L3.34833 54.5534C1.47014 56.2583 0.646658 58.7152 1.14075 61.1251C1.6365 63.538 3.37329 65.5271 5.78716 66.4455L26.4623 74.3076L26.4457 74.3484L32.1285 76.5102L37.8712 78.6939L37.8878 78.6531L58.4964 86.4901C60.9236 87.4132 63.6436 87.1102 65.7763 85.6832C67.909 84.2561 69.1101 81.9327 68.992 79.5386Z" stroke="white" stroke-width="2.002"/>
</svg>
