<svg width="116" height="116" viewBox="0 0 116 116" fill="none" xmlns="http://www.w3.org/2000/svg">
<path d="M43.8745 28.5648C38.036 40.2731 19.1311 39.1198 13.7812 26.0048C8.85679 13.9331 17.5988 -1.53021 35.1193 0.948122C51.4714 3.04979 58.1725 13.9798 75.5318 14.3965C87.4082 14.6798 96.2765 4.60812 89.7134 0.828122C83.6289 -2.67354 77.3699 9.85146 73.9911 18.5281C71.1192 25.8948 55.4402 67.9198 46.8129 88.2848C41.8685 99.9581 32.5981 103.911 24.8898 103.911C12.1575 103.911 1.83496 93.5615 1.83496 80.7915C1.83496 68.0248 12.1575 57.6731 24.8898 57.6731C25.1591 57.6731 25.4316 57.6781 25.7009 57.6881" stroke="white" stroke-width="2.168"/>
<path d="M50.5146 57.6165L115.988 57.6732" stroke="white" stroke-width="2.168"/>
<path d="M110.23 27.3318L79.4434 114.718" stroke="white" stroke-width="2.168"/>
<path fill-rule="evenodd" clip-rule="evenodd" d="M102.529 85.5709L101.786 85.2942C101.243 85.0926 100.965 84.4876 101.168 83.9392C101.274 83.6509 101.504 83.4209 101.794 83.3159L102.557 83.0392C103.789 82.5892 104.779 81.6509 105.291 80.4426L105.876 79.0759C106.132 78.4709 106.829 78.1926 107.427 78.4509C107.709 78.5692 107.937 78.7992 108.053 79.0809L108.635 80.4759C109.135 81.6792 110.111 82.6242 111.333 83.0876L112.094 83.3759C112.636 83.5792 112.91 84.1876 112.704 84.7309C112.597 85.0192 112.37 85.2492 112.077 85.3526L111.331 85.6226C110.099 86.0692 109.104 87.0076 108.589 88.2142L107.995 89.5959C107.739 90.1992 107.045 90.4776 106.443 90.2192C106.16 90.0959 105.936 89.8659 105.818 89.5809L105.253 88.2092C104.751 86.9892 103.762 86.0309 102.529 85.5709Z" fill="white"/>
<path fill-rule="evenodd" clip-rule="evenodd" d="M94.5957 97.5517L94.1454 97.3833C93.8179 97.2617 93.6517 96.895 93.7731 96.565C93.8379 96.39 93.9758 96.2533 94.1503 96.1883L94.6124 96.0217C95.3569 95.75 95.9552 95.1833 96.266 94.4533L96.6184 93.6267C96.7729 93.2633 97.1917 93.0933 97.5557 93.25C97.7269 93.3217 97.8632 93.4583 97.933 93.6317L98.2837 94.4733C98.5878 95.2017 99.1761 95.7717 99.9124 96.0517L100.373 96.2233C100.702 96.3467 100.865 96.715 100.743 97.0433C100.679 97.2183 100.539 97.355 100.364 97.4183L99.9124 97.5833C99.1678 97.8517 98.5679 98.4183 98.2571 99.1483L97.8981 99.9817C97.7435 100.347 97.323 100.515 96.9607 100.358C96.7896 100.283 96.6533 100.147 96.5818 99.9733L96.2411 99.145C95.937 98.4067 95.342 97.8283 94.5957 97.5517Z" fill="white"/>
<path fill-rule="evenodd" clip-rule="evenodd" d="M34.8361 13.2451L34.527 13.1334C34.3043 13.0467 34.1879 12.7967 34.271 12.5717C34.3176 12.4501 34.4106 12.3567 34.5303 12.3134L34.8477 12.1984C35.3546 12.0117 35.7668 11.6251 35.9779 11.1267L36.2188 10.5601C36.3252 10.3101 36.6111 10.1951 36.862 10.3001C36.9767 10.3517 37.0714 10.4434 37.1213 10.5634L37.3606 11.1384C37.5667 11.6351 37.9706 12.0284 38.4741 12.2184L38.7899 12.3367C39.0143 12.4217 39.1273 12.6717 39.0409 12.8984C38.9993 13.0167 38.9029 13.1101 38.7849 13.1551L38.4725 13.2684C37.9656 13.4517 37.5551 13.8384 37.3423 14.3384L37.0947 14.9101C36.99 15.1584 36.7025 15.2734 36.4548 15.1667C36.3352 15.1151 36.2438 15.0217 36.1939 14.9034L35.9612 14.3367C35.7552 13.8317 35.3463 13.4351 34.8361 13.2451Z" fill="white"/>
<path fill-rule="evenodd" clip-rule="evenodd" d="M23.8999 23.3408L23.2401 23.0958C22.7582 22.9158 22.5089 22.3758 22.69 21.8908C22.7848 21.6342 22.9892 21.4308 23.2468 21.3358L23.9265 21.0892C25.0201 20.6908 25.901 19.8558 26.358 18.7825L26.8749 17.5675C27.1042 17.0292 27.7208 16.7825 28.256 17.0108C28.5069 17.1175 28.7097 17.3192 28.8127 17.5725L29.3279 18.8108C29.7734 19.8825 30.6426 20.7225 31.7245 21.1325L32.4009 21.3875C32.8846 21.5692 33.1289 22.1108 32.9461 22.5942C32.8497 22.8525 32.6469 23.0525 32.3893 23.1458L31.7245 23.3875C30.6276 23.7842 29.7468 24.6175 29.2864 25.6908L28.7612 26.9192C28.5335 27.4542 27.9136 27.7025 27.3818 27.4725C27.1275 27.3625 26.9281 27.1592 26.8234 26.9058L26.3214 25.6858C25.8744 24.6008 24.9968 23.7508 23.8999 23.3408Z" fill="white"/>
<path fill-rule="evenodd" clip-rule="evenodd" d="M40.7781 19.026L40.2728 18.8377C39.9055 18.701 39.7177 18.291 39.854 17.9194C39.9288 17.7244 40.0834 17.5694 40.2795 17.4977L40.7963 17.3094C41.6306 17.0044 42.3021 16.3694 42.6511 15.5494L43.0466 14.6227C43.2212 14.2127 43.6915 14.0244 44.0987 14.1994C44.2915 14.281 44.4444 14.4344 44.5241 14.6277L44.9164 15.571C45.2554 16.3894 45.9169 17.0294 46.7445 17.3427L47.2597 17.536C47.6287 17.676 47.8132 18.0877 47.6752 18.456C47.6005 18.6527 47.4475 18.806 47.2514 18.8777L46.7445 19.061C45.9086 19.3627 45.2355 19.9994 44.8848 20.8177L44.4826 21.7544C44.3097 22.1627 43.8394 22.3527 43.4322 22.176C43.2378 22.0927 43.0865 21.9377 43.0068 21.7444L42.6228 20.8144C42.2821 19.986 41.614 19.3377 40.7781 19.026Z" fill="white"/>
<path fill-rule="evenodd" clip-rule="evenodd" d="M49.0127 55.7734L50.4071 59.4651L50.6763 59.4601L50.683 55.7734H49.0127Z" fill="white"/>
<path fill-rule="evenodd" clip-rule="evenodd" d="M27.291 59.5038L25.9049 55.8354L25.6374 55.8404L25.6307 59.5304L27.291 59.5038Z" fill="white"/>
<path fill-rule="evenodd" clip-rule="evenodd" d="M112.423 26.6661H108.516L108.426 26.9194L111.861 28.2311L112.423 26.6661Z" fill="white"/>
<path fill-rule="evenodd" clip-rule="evenodd" d="M77.293 115.38L81.1238 115.372L81.2119 115.119L77.8547 113.817L77.293 115.38Z" fill="white"/>
</svg>
