<svg width="124" height="133" viewBox="0 0 124 133" fill="none" xmlns="http://www.w3.org/2000/svg">
<path d="M69.2444 36.9092C67.4272 23.3279 57.5021 12.3132 44.498 8.88879" stroke="white" stroke-width="2.208"/>
<path d="M75.5562 35.9335C79.759 33.1075 84.8978 31.6048 91.1322 31.9871C98.6617 24.4052 98.9759 12.9949 98.8379 9.06514C98.8246 8.66451 98.6583 8.30212 98.3923 8.03947C98.128 7.77516 97.7672 7.6056 97.3649 7.59231C93.4265 7.45433 81.9702 7.77018 74.3875 15.3504C66.5521 23.185 68.3992 33.2322 69.1656 36.1745" stroke="white" stroke-width="2.208" stroke-linecap="square" stroke-linejoin="bevel"/>
<path d="M75.5566 35.9335C75.2723 36.1247 74.9914 36.3192 74.7154 36.522C72.7653 37.9599 70.0737 37.9599 68.1236 36.522C62.4711 32.3595 55.043 30.6672 45.4122 32.943C21.6434 38.5583 23.3225 69.7554 31.1795 89.0568C43.1079 118.352 47.738 127.56 62.762 127.56C64.895 127.56 66.8933 127.038 68.7487 126.065C70.4328 125.181 72.4062 125.181 74.0919 126.065C75.9456 127.038 77.9456 127.56 80.0803 127.56C95.1026 127.56 99.731 118.352 111.659 89.0568C119.516 69.7554 121.196 38.5583 97.4285 32.943C95.214 32.4193 93.1176 32.1085 91.1326 31.9871C91.1143 32.0038 91.0993 32.0237 91.0794 32.042" stroke="white" stroke-width="2.208"/>
<path d="M53.6704 43.5487C45.569 45.4621 40.4253 50.3477 37.4727 56.7227" stroke="white" stroke-width="2.208"/>
<mask id="mask0" style="mask-type:alpha" maskUnits="userSpaceOnUse" x="14" y="16" width="33" height="34">
<path fill-rule="evenodd" clip-rule="evenodd" d="M15.1151 16.8617C13.8818 18.01 13.8151 19.9434 14.9651 21.1767L41.4535 49.4684L46.3668 45.7767L19.4318 17.01L19.2685 16.85C18.6901 16.3117 17.9451 16.04 17.1968 16.04C16.4501 16.04 15.7051 16.3117 15.1151 16.8617Z" fill="white"/>
</mask>
<g mask="url(#mask0)">
<path fill-rule="evenodd" clip-rule="evenodd" d="M9.54688 54.0667H50.9652V11.4401H9.54688V54.0667Z" fill="white"/>
</g>
<mask id="mask1" style="mask-type:alpha" maskUnits="userSpaceOnUse" x="20" y="23" width="17" height="16">
<path fill-rule="evenodd" clip-rule="evenodd" d="M29.1059 23.7884L21.0768 31.2752L20.9255 31.4282C20.1299 32.3173 20.1299 33.6892 20.9595 34.5783C21.8418 35.5218 23.3191 35.5762 24.2643 34.6939L32.2917 27.2088L32.4413 27.0558C33.2386 26.165 33.2386 24.7965 32.4073 23.904C31.9466 23.411 31.3244 23.1611 30.6988 23.1611C30.1259 23.1611 29.5547 23.3719 29.1059 23.7884ZM33.9322 28.5433C33.3712 28.5433 32.8085 28.7422 32.358 29.1502L26.2397 34.7313L26.0901 34.8809C25.2826 35.7615 25.2673 37.13 26.0884 38.031C26.9571 38.983 28.4344 39.0544 29.3881 38.184L35.5081 32.6029L35.6577 32.4533C36.4652 31.571 36.4805 30.2042 35.6577 29.3032C35.2004 28.8 34.5748 28.5433 33.9441 28.5433C33.9407 28.5433 33.9373 28.5433 33.9322 28.5433Z" fill="white"/>
</mask>
<g mask="url(#mask1)">
<path fill-rule="evenodd" clip-rule="evenodd" d="M15.6416 43.4846H40.9614V18.4708H15.6416V43.4846Z" fill="white"/>
</g>
<mask id="mask2" style="mask-type:alpha" maskUnits="userSpaceOnUse" x="0" y="0" width="32" height="33">
<path fill-rule="evenodd" clip-rule="evenodd" d="M3.01171 3.32143C-0.627866 6.64618 -0.828287 12.2611 2.5654 15.8301C3.19529 16.4884 3.95655 17.0247 4.84919 17.5692C1.99445 20.9203 2.07529 25.9066 5.2214 29.2083C8.6134 32.7772 14.3464 32.9719 17.9877 29.6472C20.2766 27.5517 21.1641 24.6427 20.738 21.9483C23.586 22.5538 26.6075 21.8889 28.7717 19.7917C32.4113 16.467 32.6134 10.8504 29.218 7.28308C26.0719 3.98308 21.0024 3.55408 17.3915 6.11158C17.026 5.33443 16.5326 4.55068 15.778 3.75868C14.0029 1.89253 11.5894 0.94873 9.1675 0.94873C6.96119 0.95203 4.74813 1.73413 3.01171 3.32143ZM6.60413 12.2611C5.21803 10.9345 5.30056 8.63608 6.78266 7.28308C8.26813 5.92843 10.4812 6.00433 11.8639 7.45798C13.2467 8.91163 13.1692 11.0781 11.6871 12.436C10.9797 13.0845 10.1039 13.4029 9.2315 13.4029C8.27656 13.4029 7.32834 13.0201 6.60413 12.2611ZM20.0475 15.7888C18.6631 14.3335 18.7406 12.1654 20.221 10.8108C21.7048 9.45613 23.9229 9.53203 25.3056 10.9857L25.4622 11.1474C26.6816 12.4921 26.5502 14.6602 25.1271 15.9621C24.4163 16.6089 23.5422 16.9306 22.6715 16.9306C21.7182 16.9306 20.7683 16.5462 20.0475 15.7888ZM9.12877 25.636C7.74603 24.184 7.82182 22.011 9.30561 20.6596C10.7894 19.3066 13.0041 19.3792 14.3869 20.8329C15.7713 22.2865 15.6871 24.5833 14.21 25.8109C13.501 26.4577 12.6252 26.7795 11.7561 26.7795C10.8029 26.7795 9.85129 26.395 9.12877 25.636Z" fill="white"/>
</mask>
<g mask="url(#mask2)">
<path fill-rule="evenodd" clip-rule="evenodd" d="M-4.50195 36.5706H36.2863V-3.60364H-4.50195V36.5706Z" fill="white"/>
</g>
<mask id="mask3" style="mask-type:alpha" maskUnits="userSpaceOnUse" x="100" y="106" width="23" height="27">
<path fill-rule="evenodd" clip-rule="evenodd" d="M100.025 112.252L117.716 131.778L117.875 131.94C119.02 133.032 120.811 133.042 121.971 131.93C123.185 130.769 123.252 128.808 122.12 127.56L102.866 106.309L100.025 112.252Z" fill="white"/>
</mask>
<g mask="url(#mask3)">
<path fill-rule="evenodd" clip-rule="evenodd" d="M95.4932 137.416H127.462V101.651H95.4932V137.416Z" fill="white"/>
</g>
<path fill-rule="evenodd" clip-rule="evenodd" d="M114.048 122.988L114.209 122.83L118.939 118.451C120.156 117.325 122.058 117.392 123.19 118.598C124.273 119.752 124.263 121.525 123.201 122.66L123.043 122.819L118.312 127.197C117.095 128.323 115.191 128.256 114.06 127.05C112.978 125.9 112.988 124.125 114.048 122.988ZM107.826 116.305L107.988 116.151L112.846 111.775C114.078 110.666 115.981 110.759 117.094 111.981C118.162 113.146 118.125 114.919 117.048 116.043L116.888 116.198L112.03 120.575C110.799 121.681 108.896 121.59 107.782 120.369C106.714 119.203 106.751 117.428 107.826 116.305Z" fill="white"/>
</svg>
