<svg width="62" height="111" viewBox="0 0 62 111" fill="none" xmlns="http://www.w3.org/2000/svg">
<path fill-rule="evenodd" clip-rule="evenodd" d="M2.69361 7.74385C1.64844 7.71024 0.832961 6.83983 0.872782 5.79796C0.916166 4.6485 0.97736 3.49643 1.05471 2.33888C1.12374 1.29741 2.0251 0.506457 3.06825 0.570019C4.11139 0.63358 4.89977 1.52732 4.83219 2.56795C4.75644 3.68812 4.69851 4.80569 4.65673 5.91776C4.61691 6.95963 3.73878 7.77746 2.69361 7.74385ZM3.40242 22.8269C2.361 22.937 1.43404 22.1847 1.33052 21.1488C1.07843 18.6176 0.914137 16.0646 0.8391 13.4887C0.807866 12.4476 1.63039 11.5736 2.67524 11.5364C3.72092 11.5006 4.59225 12.3139 4.62348 13.355C4.69652 15.8437 4.85508 18.3099 5.09916 20.7536C5.20269 21.7895 4.4424 22.7177 3.40242 22.8269ZM6.25449 37.6339C5.24022 37.8914 4.21301 37.2833 3.95975 36.2725C3.33941 33.7928 2.80749 31.2888 2.37 28.7611C2.1915 27.7359 2.88293 26.7553 3.91119 26.5723C4.94318 26.389 5.92224 27.0709 6.09929 28.097C6.52255 30.5331 7.03506 32.9466 7.63393 35.3389C7.88636 36.3483 7.2702 37.3756 6.25449 37.6339ZM11.2352 51.8317C10.2682 52.2346 9.16146 51.7799 8.76513 50.819C7.78408 48.4439 6.89312 46.0475 6.0943 43.6267C5.76753 42.6391 6.30718 41.5697 7.30228 41.2388C8.29509 40.9074 9.36361 41.4398 9.69038 42.4274C10.4625 44.7619 11.3202 47.0739 12.2666 49.3654C12.6643 50.3254 12.2016 51.4311 11.2352 51.8317ZM18.1879 65.2191C17.2842 65.7485 16.1243 65.4492 15.5984 64.5517C14.2975 62.3286 13.0807 60.0839 11.9509 57.8158C11.4866 56.8846 11.87 55.7518 12.8071 55.2837C13.7442 54.8156 14.88 55.1902 15.3442 56.1214C16.436 58.3136 17.6127 60.4856 18.8712 62.6353C19.3971 63.5328 19.0915 64.6897 18.1879 65.2191ZM26.7931 77.5776C25.9607 78.2136 24.7738 78.0584 24.1405 77.2325C22.5735 75.1842 21.0862 73.1167 19.677 71.0272C19.094 70.1646 19.3269 68.992 20.1958 68.4059C21.0656 67.8212 22.2407 68.0465 22.8223 68.91C24.1913 70.9364 25.6347 72.9447 27.1571 74.9325C27.789 75.7592 27.6263 76.943 26.7931 77.5776ZM36.7466 88.8986C35.9855 89.6181 34.7879 89.5881 34.0704 88.8338C32.2944 86.9656 30.5891 85.0759 28.9545 83.1682C28.2769 82.3794 28.3733 81.1878 29.1696 80.5094C29.9665 79.8286 31.1624 79.9191 31.8385 80.7088C33.4313 82.5676 35.0941 84.4071 36.8272 86.231C37.5447 86.9853 37.5076 88.1791 36.7466 88.8986ZM45.2603 99.4525L45.1649 99.3809L43.9872 98.4184L43.925 98.3641C42.3957 97.0002 40.9053 95.6233 39.4578 94.2371C38.7055 93.5163 38.6851 92.3231 39.4127 91.5691C40.1388 90.816 41.3362 90.7886 42.0899 91.5086C43.2223 92.5932 44.3819 93.6717 45.5652 94.7442L46.4332 95.5249L47.5755 96.4561C48.3504 97.0889 48.4851 98.2123 47.904 99.016L47.8294 99.1109C47.1899 99.8869 46.0627 100.029 45.2603 99.4525ZM61.8824 110.586L58.5841 110.023L38.3087 106.557C37.2793 106.38 36.5933 105.406 36.7746 104.379C36.9502 103.395 37.8605 102.719 38.8413 102.819L38.9696 102.837L52.1596 105.092L51.0055 104.15C50.1999 103.491 50.0839 102.303 50.7507 101.494C51.3903 100.718 52.5182 100.577 53.3206 101.154L53.416 101.225L54.5687 102.168L49.7705 89.7317C49.4102 88.7999 49.8457 87.7541 50.7446 87.3369L50.8593 87.2879C51.7971 86.9249 52.8431 87.3514 53.2565 88.2448L53.305 88.3588L60.6827 107.478L61.8824 110.586Z" fill="white"/>
</svg>
