<svg width="229" height="176" viewBox="0 0 229 176" fill="none" xmlns="http://www.w3.org/2000/svg">
<path fill-rule="evenodd" clip-rule="evenodd" d="M131.777 88.6612C131.979 87.6787 131.339 86.6766 130.344 86.4229C129.247 86.1424 128.144 85.8778 127.032 85.6267C126.031 85.4003 125.082 86.0187 124.908 87.0076C124.735 87.9964 125.404 88.9799 126.403 89.2074C127.48 89.4496 128.55 89.7076 129.611 89.9791C130.605 90.2328 131.575 89.6436 131.777 88.6612ZM145.884 93.5311C146.221 92.5922 145.717 91.5193 144.761 91.1338C142.423 90.1926 140.045 89.327 137.626 88.5382C136.648 88.2185 135.637 88.7403 135.368 89.7026C135.101 90.6661 135.675 91.7043 136.652 92.024C138.99 92.7867 141.287 93.6226 143.544 94.532C144.5 94.9175 145.548 94.4688 145.884 93.5311ZM159.251 100.319C159.721 99.4468 159.376 98.3208 158.477 97.8029C156.27 96.5332 154.021 95.3391 151.728 94.2262C150.798 93.7739 149.716 94.1439 149.313 95.0501C148.909 95.9597 149.334 97.0615 150.265 97.5127C152.475 98.5868 154.643 99.7376 156.771 100.963C157.67 101.48 158.779 101.193 159.251 100.319ZM171.565 108.919C172.162 108.131 171.98 106.974 171.159 106.337C169.133 104.761 167.065 103.262 164.955 101.843C164.094 101.263 162.961 101.467 162.426 102.301C161.89 103.133 162.155 104.276 163.016 104.856C165.051 106.226 167.046 107.67 169.001 109.191C169.82 109.829 170.969 109.707 171.565 108.919ZM182.671 119.128C183.374 118.435 183.35 117.272 182.619 116.531C180.807 114.7 178.957 112.94 177.064 111.256C176.287 110.563 175.13 110.604 174.478 111.346C173.825 112.088 173.926 113.25 174.702 113.942C176.531 115.57 178.322 117.272 180.074 119.043C180.805 119.784 181.968 119.822 182.671 119.128ZM192.434 130.589C193.222 129.992 193.341 128.844 192.701 128.023C191.114 125.993 189.492 124.031 187.831 122.136C187.145 121.352 185.984 121.242 185.236 121.887C184.488 122.534 184.438 123.691 185.125 124.473C186.735 126.313 188.311 128.218 189.851 130.19C190.491 131.009 191.647 131.188 192.434 130.589ZM200.914 143.016C201.765 142.508 202.005 141.385 201.452 140.506C200.082 138.331 198.677 136.216 197.238 134.162C196.644 133.311 195.495 133.068 194.675 133.62C193.853 134.172 193.671 135.31 194.267 136.16C195.668 138.162 197.036 140.224 198.373 142.346C198.926 143.225 200.063 143.523 200.914 143.016ZM208.991 153.887L208.945 153.779L208.298 152.414L208.261 152.341C207.313 150.536 206.344 148.764 205.357 147.03C204.843 146.128 203.719 145.776 202.844 146.243C201.969 146.709 201.675 147.816 202.187 148.719C202.96 150.076 203.72 151.456 204.47 152.857L205.014 153.883L205.639 155.206C206.064 156.105 207.097 156.544 207.987 156.227L208.093 156.184C208.97 155.805 209.357 154.795 208.991 153.887ZM215.802 172.47L216.008 169.242L217.266 149.399C217.329 148.391 216.562 147.481 215.549 147.363C214.579 147.251 213.737 147.91 213.611 148.851L213.6 148.976L212.781 161.885L212.149 160.547C211.706 159.613 210.608 159.174 209.694 159.569C208.816 159.948 208.431 160.958 208.797 161.866L208.843 161.975L209.477 163.311L198.788 155.373C197.987 154.778 196.901 154.891 196.305 155.611L196.233 155.705C195.68 156.476 195.849 157.569 196.602 158.203L196.699 158.28L213.131 170.485L215.802 172.47Z" fill="white"/>
<path fill-rule="evenodd" clip-rule="evenodd" d="M42.7693 58.4827C43.4251 56.9593 42.6345 55.2197 41.0078 54.6063C39.3793 53.9912 37.52 54.7324 36.8625 56.2559L25 83.8014L30.9051 86.0282L42.7693 58.4827Z" fill="white" stroke="white" stroke-width="2.002"/>
<path fill-rule="evenodd" clip-rule="evenodd" d="M22.181 122.184L33.877 89.3764C34.2682 88.2765 33.697 87.0733 32.5778 86.6378L23.7675 83.2205C22.6482 82.7866 21.3705 83.273 20.8604 84.3268L5.62015 115.875C3.83068 120.16 6.04276 125.164 10.5973 126.933C15.1519 128.699 20.3486 126.567 22.181 122.184Z" stroke="white" stroke-width="2.002"/>
<path d="M31 95.9152L27.4358 94.56L21.5659 92.327L18 90.9717" stroke="white" stroke-width="2.002"/>
<path fill-rule="evenodd" clip-rule="evenodd" d="M68.992 79.5386L68.7192 8.08715C68.5811 5.24718 66.8077 2.82637 64.0811 1.67563C63.9879 1.63638 63.9014 1.58614 63.805 1.55003C63.7966 1.54689 63.7867 1.54218 63.7767 1.53904C60.872 0.444815 57.6713 1.03667 55.3655 3.13093L3.34833 54.5534C1.47014 56.2583 0.646658 58.7152 1.14075 61.1251C1.6365 63.538 3.37329 65.5271 5.78716 66.4455L26.4623 74.3076L26.4457 74.3484L32.1285 76.5102L37.8712 78.6939L37.8878 78.6531L58.4964 86.4901C60.9236 87.4132 63.6436 87.1102 65.7763 85.6832C67.909 84.2561 69.1101 81.9327 68.992 79.5386Z" stroke="white" stroke-width="2.002"/>
</svg>
