<svg width="62" height="111" viewBox="0 0 62 111" fill="none" xmlns="http://www.w3.org/2000/svg">
<path fill-rule="evenodd" clip-rule="evenodd" d="M59.3064 7.74361C60.3516 7.71 61.167 6.83958 61.1272 5.79771C61.0838 4.64825 61.0226 3.49619 60.9453 2.33863C60.8763 1.29717 59.9749 0.506213 58.9318 0.569775C57.8886 0.633336 57.1002 1.52708 57.1678 2.5677C57.2436 3.68788 57.3015 4.80544 57.3433 5.91752C57.3831 6.95939 58.2612 7.77722 59.3064 7.74361ZM58.5976 22.8267C59.639 22.9368 60.566 22.1844 60.6695 21.1486C60.9216 18.6174 61.0859 16.0643 61.1609 13.4885C61.1921 12.4473 60.3696 11.5734 59.3248 11.5362C58.2791 11.5004 57.4078 12.3136 57.3765 13.3548C57.3035 15.8435 57.1449 18.3097 56.9008 20.7534C56.7973 21.7892 57.5576 22.7175 58.5976 22.8267ZM55.7455 37.6337C56.7598 37.8912 57.787 37.2831 58.0402 36.2723C58.6606 33.7925 59.1925 31.2886 59.63 28.7608C59.8085 27.7357 59.1171 26.7551 58.0888 26.572C57.0568 26.3887 56.0778 27.0707 55.9007 28.0967C55.4774 30.5329 54.9649 32.9463 54.3661 35.3387C54.1136 36.3481 54.7298 37.3754 55.7455 37.6337ZM50.7648 51.8315C51.7318 52.2344 52.8385 51.7796 53.2349 50.8188C54.2159 48.4437 55.1069 46.0473 55.9057 43.6265C56.2325 42.6389 55.6928 41.5694 54.6977 41.2386C53.7049 40.9071 52.6364 41.4396 52.3096 42.4272C51.5375 44.7617 50.6798 47.0737 49.7334 49.3652C49.3357 50.3252 49.7984 51.4309 50.7648 51.8315ZM43.8121 65.2189C44.7158 65.7483 45.8757 65.449 46.4016 64.5514C47.7025 62.3284 48.9193 60.0836 50.0491 57.8155C50.5134 56.8843 50.13 55.7516 49.1929 55.2835C48.2558 54.8153 47.12 55.19 46.6558 56.1212C45.564 58.3134 44.3873 60.4853 43.1288 62.635C42.6029 63.5325 42.9085 64.6895 43.8121 65.2189ZM35.2069 77.5773C36.0393 78.2134 37.2262 78.0582 37.8595 77.2322C39.4265 75.1839 40.9138 73.1165 42.323 71.0269C42.906 70.1643 42.6731 68.9918 41.8042 68.4057C40.9344 67.821 39.7593 68.0463 39.1777 68.9097C37.8087 70.9362 36.3653 72.9445 34.8429 74.9322C34.211 75.759 34.3737 76.9428 35.2069 77.5773ZM25.2534 88.8983C26.0145 89.6179 27.2121 89.5879 27.9296 88.8336C29.7056 86.9654 31.4109 85.0756 33.0455 83.168C33.7231 82.3792 33.6267 81.1876 32.8304 80.5091C32.0335 79.8283 30.8376 79.9189 30.1615 80.7085C28.5687 82.5673 26.9059 84.4068 25.1728 86.2307C24.4553 86.985 24.4924 88.1788 25.2534 88.8983ZM16.7397 99.4522L16.8351 99.3807L18.0128 98.4181L18.075 98.3639C19.6043 96.9999 21.0947 95.6231 22.5422 94.2368C23.2945 93.516 23.3149 92.3229 22.5873 91.5689C21.8612 90.8158 20.6638 90.7884 19.9101 91.5083C18.7777 92.593 17.6181 93.6715 16.4348 94.744L15.5668 95.5246L14.4245 96.4558C13.6496 97.0887 13.5149 98.2121 14.096 99.0157L14.1706 99.1106C14.8101 99.8867 15.9373 100.029 16.7397 99.4522ZM0.11763 110.586L3.41585 110.023L23.6913 106.557C24.7207 106.38 25.4067 105.406 25.2254 104.378C25.0498 103.394 24.1395 102.719 23.1587 102.819L23.0304 102.837L9.84043 105.092L10.9945 104.15C11.8001 103.491 11.9161 102.303 11.2493 101.494C10.6097 100.718 9.48178 100.577 8.67939 101.154L8.58398 101.225L7.43134 102.168L12.2295 89.7315C12.5898 88.7997 12.1543 87.7539 11.2554 87.3366L11.1407 87.2877C10.2029 86.9247 9.15689 87.3512 8.74347 88.2446L8.69503 88.3586L1.31733 107.478L0.11763 110.586Z" fill="white"/>
</svg>
