<svg width="48" height="48" viewBox="0 0 48 48" fill="none" xmlns="http://www.w3.org/2000/svg">
<path fill-rule="evenodd" clip-rule="evenodd" d="M24 48C37.2548 48 48 37.2548 48 24C48 10.7452 37.2548 0 24 0C10.7452 0 0 10.7452 0 24C0 37.2548 10.7452 48 24 48ZM36.1837 15.4882C36.1851 15.5055 36.186 15.5228 36.1864 15.5402C36.1864 15.5435 36.1867 15.5469 36.1869 15.5502C36.1872 15.5543 36.1875 15.5584 36.1875 15.5625V31.5C36.1869 31.9971 35.9892 32.4737 35.6377 32.8252C35.2862 33.1767 34.8096 33.3744 34.3125 33.375H13.6875C13.1904 33.3744 12.7138 33.1767 12.3623 32.8252C12.0108 32.4737 11.8131 31.9971 11.8125 31.5V15.5625C11.8125 15.5567 11.8131 15.551 11.8134 15.5453C11.8135 15.5436 11.8136 15.5419 11.8136 15.5402C11.814 15.5228 11.8149 15.5055 11.8163 15.4882C11.8173 15.4741 11.8187 15.4601 11.8204 15.4462C11.8225 15.43 11.825 15.4139 11.8278 15.3978C11.8304 15.3833 11.8332 15.3688 11.8364 15.3546C11.8399 15.3393 11.8439 15.3241 11.8481 15.309C11.8522 15.2946 11.8564 15.2803 11.8611 15.2661C11.866 15.2514 11.8715 15.2369 11.8772 15.2223C11.8825 15.2084 11.8881 15.1947 11.8941 15.1811C11.9005 15.1668 11.9074 15.1528 11.9145 15.1387C11.9213 15.1254 11.9282 15.1123 11.9355 15.0994C11.9432 15.086 11.9513 15.0729 11.9596 15.0598C11.968 15.0466 11.9766 15.0337 11.9856 15.0209C11.9941 15.009 12.003 14.9972 12.0121 14.9855C12.0224 14.9724 12.033 14.9596 12.044 14.9471C12.0463 14.9444 12.0484 14.9417 12.0506 14.939C12.0533 14.9356 12.0559 14.9322 12.0589 14.929C12.0613 14.9264 12.0638 14.924 12.0664 14.9216C12.0686 14.9195 12.0709 14.9173 12.073 14.9151C12.0843 14.9033 12.0959 14.892 12.1078 14.8808C12.119 14.8702 12.1301 14.8599 12.1417 14.85C12.1528 14.8405 12.1642 14.8315 12.1758 14.8226C12.1888 14.8124 12.2018 14.8024 12.2152 14.7931C12.2248 14.7864 12.2348 14.78 12.2448 14.7737L12.2493 14.7709C12.2636 14.7618 12.2779 14.7528 12.2926 14.7446C12.3028 14.7388 12.3132 14.7336 12.3237 14.7284L12.3291 14.7257L12.3303 14.7251C12.3445 14.7179 12.3588 14.7107 12.3733 14.7043C12.3848 14.6993 12.3966 14.6948 12.4084 14.6903L12.4141 14.6881C12.4286 14.6825 12.443 14.6769 12.4577 14.6721C12.4721 14.6674 12.4869 14.6634 12.5017 14.6593L12.5034 14.6589C12.5175 14.655 12.5314 14.6512 12.5456 14.648C12.5596 14.6449 12.5739 14.6424 12.5882 14.64L12.5901 14.6396C12.6058 14.6369 12.6214 14.6343 12.6372 14.6324C12.6512 14.6308 12.6653 14.6296 12.6796 14.6285C12.6968 14.6273 12.7141 14.6263 12.7313 14.6259C12.7343 14.6259 12.7371 14.6257 12.74 14.6255C12.7433 14.6252 12.7466 14.625 12.75 14.625H35.25C35.2537 14.625 35.2573 14.6253 35.2609 14.6255C35.2639 14.6257 35.2668 14.6259 35.2698 14.626C35.2862 14.6264 35.3026 14.6273 35.3189 14.6285C35.334 14.6296 35.3489 14.6308 35.3638 14.6326C35.3787 14.6344 35.3935 14.6369 35.4083 14.6394C35.4241 14.6421 35.4397 14.6448 35.4552 14.6482C35.4681 14.6511 35.4809 14.6546 35.4938 14.6581L35.4968 14.6589L35.5002 14.6598C35.5145 14.6638 35.5289 14.6677 35.543 14.6724C35.5528 14.6756 35.5625 14.6792 35.5721 14.6829C35.5762 14.6844 35.5803 14.686 35.5844 14.6876C35.5988 14.693 35.6132 14.6984 35.6272 14.7046C35.6416 14.7109 35.6556 14.718 35.6698 14.7251C35.6825 14.7315 35.6953 14.7378 35.7078 14.7448C35.722 14.7528 35.7358 14.7615 35.7497 14.7702L35.75 14.7704C35.7553 14.7738 35.7606 14.7772 35.7659 14.7806C35.7724 14.7847 35.7788 14.7889 35.7851 14.7933C35.7983 14.8025 35.811 14.8123 35.8239 14.8223C35.8356 14.8314 35.8472 14.8405 35.8585 14.8501C35.8699 14.8599 35.881 14.8703 35.8921 14.8807C35.904 14.8919 35.9157 14.9033 35.927 14.9151C35.9316 14.9199 35.9366 14.9241 35.9411 14.929C35.9464 14.9348 35.9509 14.9411 35.956 14.9471C35.967 14.9596 35.9776 14.9724 35.9879 14.9855C35.997 14.9972 36.0059 15.0089 36.0144 15.0209C36.0234 15.0337 36.032 15.0466 36.0404 15.0598C36.0487 15.0729 36.0568 15.086 36.0645 15.0994C36.0718 15.1123 36.0787 15.1254 36.0855 15.1388C36.0926 15.1528 36.0995 15.1668 36.1059 15.1811C36.1119 15.1947 36.1175 15.2084 36.1228 15.2223C36.1285 15.2369 36.134 15.2514 36.1389 15.2662C36.1413 15.2733 36.1435 15.2804 36.1457 15.2876C36.1478 15.2947 36.1498 15.3019 36.1518 15.309C36.1561 15.3241 36.1601 15.3393 36.1636 15.3546C36.1646 15.3593 36.1657 15.3641 36.1666 15.3689C36.1686 15.3784 36.1704 15.3881 36.1722 15.3978C36.175 15.4139 36.1775 15.43 36.1795 15.4462C36.1812 15.4601 36.1826 15.4741 36.1837 15.4882ZM20.5671 24L13.6875 17.6937V30.3063L20.5671 24ZM21.9546 25.2719L15.1602 31.5H32.8398L26.0455 25.2718L24.6335 26.5661C24.4606 26.7246 24.2346 26.8125 24 26.8125C23.7654 26.8125 23.5394 26.7246 23.3665 26.5661L21.9546 25.2719ZM34.3127 17.6935L27.4329 24L34.3136 30.3072L34.3127 17.6935Z" fill="#0190A3"/>
</svg>
