<svg xmlns="http://www.w3.org/2000/svg" width="130" height="40" viewBox="0 0 87 16"><g fill="#0F3D4C" fill-rule="nonzero"><path d="M4.15551402 11.8459813L4.15551402 1.70766355.0448598131 1.70766355.0448598131 15.5753271 10.6557009 15.5753271 10.6557009 15.5753271 8.51140187 11.8459813zM16.6205607 3.79514019C12.9181308 3.79514019 10.2534579 6.33719626 10.2534579 9.87214953 10.2534579 13.4071028 12.9181308 15.9491589 16.6205607 15.9491589 20.3229907 15.9491589 22.9876636 13.3966355 22.9876636 9.87214953 22.9876636 6.34766355 20.311028 3.79514019 16.6205607 3.79514019zM16.6205607 12.4201869L16.6205607 12.4201869C15.1940187 12.4201869 14.171215 11.3734579 14.171215 9.87813084 14.171215 8.38280374 15.1940187 7.33607477 16.6205607 7.33607477 18.0471028 7.33607477 19.0699065 8.38280374 19.0699065 9.87813084 19.0699065 11.3734579 18.0471028 12.4201869 16.6205607 12.4201869zM30.2056075 12.4291589C28.8433645 12.4291589 27.8534579 11.355514 27.8534579 9.86915888 27.8534579 8.38280374 28.8269159 7.3271028 30.2056075 7.3271028 31.1972701 7.30904021 32.0895236 7.92675415 32.4216822 8.86130841L36.2317757 8.86130841C35.7996262 5.8317757 33.4056075 3.81158879 30.2145794 3.81158879 26.5480374 3.81158879 23.9342056 6.32672897 23.9342056 9.85719626 23.9342056 13.3876636 26.5629907 15.9491589 30.2056075 15.9491589L30.2056075 15.9491589C33.4041121 15.9491589 35.831028 13.8557009 36.2736449 10.7648598L32.4246729 10.7648598C32.1430789 11.7552931 31.2352697 12.4361499 30.2056075 12.4291589L30.2056075 12.4291589zM46.7304673 5.03775701C45.7536003 4.23391932 44.5248369 3.79980212 43.2598131 3.81158879 39.7876636 3.81158879 37.3054206 6.32672897 37.3054206 9.86018692 37.3054206 13.3936449 39.7876636 15.9491589 43.2598131 15.9491589 44.5065352 15.960735 45.7183686 15.5377565 46.6871028 14.7528972L47.0220561 15.5588785 50.0456075 15.5588785 50.0456075 4.15551402 47.1297196 4.15551402 46.7304673 5.03775701zM43.7831776 12.471028C42.317757 12.471028 41.2411215 11.3585047 41.2411215 9.86915888 41.2411215 8.37981308 42.308785 7.27626168 43.7831776 7.27626168 45.2575701 7.27626168 46.3252336 8.38878505 46.3252336 9.86915888 46.3252336 11.3495327 45.2485981 12.471028 43.7831776 12.471028zM51.879.049H55.791V15.575999999999999H51.879zM57.649.04H61.501V3.375H57.649zM57.619 5.014H61.531V15.575H57.619zM73.1618692 4.80897196L73.1618692 4.16897196 63.7861682 4.16897196 63.7861682 7.63663551 67.7502804 7.63663551 63.4003738 14.9921495 63.4003738 15.5753271 73.206729 15.5753271 73.206729 12.082243 68.873271 12.082243zM80.3917757 3.79514019C76.8269159 3.79514019 74.2220561 6.36560748 74.2220561 9.86317757 74.2220561 13.3607477 76.8478505 15.9506542 80.3917757 15.9506542 83.2328972 15.9506542 85.5371963 14.3237383 86.3371963 11.7203738L82.4493458 11.7203738C82.0725234 12.3872897 81.3099065 12.7895327 80.3962617 12.7895327 79.1611215 12.7895327 78.3327103 12.1136449 78.0770093 10.8052336L86.5106542 10.8052336C86.5619949 10.4586393 86.5889769 10.1088725 86.5914019 9.75850467L86.5914019 9.75850467C86.5869159 6.41794393 84.0523364 3.79514019 80.3917757 3.79514019zM78.148785 8.62803738C78.4583178 7.49607477 79.2523364 6.87850467 80.3902804 6.87850467 81.5715888 6.87850467 82.3895327 7.49308411 82.7334579 8.63252336L78.148785 8.62803738z"></path></g></svg>