<svg width="48" height="48" viewBox="0 0 48 48" fill="none" xmlns="http://www.w3.org/2000/svg">
<path fill-rule="evenodd" clip-rule="evenodd" d="M24 48C37.2548 48 48 37.2548 48 24C48 10.7452 37.2548 0 24 0C10.7452 0 0 10.7452 0 24C0 37.2548 10.7452 48 24 48ZM18.3665 14.1193C20.0828 13.1405 22.0243 12.6255 24 12.625C25.7344 12.6251 27.4459 13.0218 29.0035 13.7848C30.5611 14.5478 31.9236 15.6569 32.9868 17.0272C34.0501 18.3975 34.7859 19.9928 35.1381 21.6911C35.4902 23.3894 35.4494 25.1458 35.0186 26.8259C34.5879 28.506 33.7787 30.0653 32.6529 31.3847C31.5271 32.7041 30.1145 33.7486 28.5231 34.4384C26.9318 35.1281 25.2037 35.4449 23.4712 35.3644C21.7386 35.2839 20.0474 34.8082 18.5268 33.9739L15.2548 34.9087C14.9547 34.9944 14.6371 34.9983 14.335 34.92C14.0329 34.8417 13.7572 34.6841 13.5366 34.4634C13.3159 34.2427 13.1582 33.967 13.08 33.6649C13.0017 33.3628 13.0056 33.0453 13.0913 32.7452L14.0262 29.4732C13.0764 27.7408 12.594 25.7909 12.6265 23.8155C12.6591 21.84 13.2055 19.9071 14.212 18.207C15.2184 16.5068 16.6502 15.098 18.3665 14.1193ZM26.3687 26.3687L29.8687 22.8687C30.0326 22.7046 30.1247 22.4821 30.1246 22.2501C30.1245 22.0182 30.0323 21.7957 29.8683 21.6317C29.7043 21.4677 29.4819 21.3755 29.2499 21.3754C29.0179 21.3753 28.7954 21.4674 28.6313 21.6313L25.75 24.5126L22.8687 21.6313C22.7046 21.4672 22.4821 21.375 22.25 21.375C22.0179 21.375 21.7954 21.4672 21.6313 21.6313L18.1313 25.1313C18.05 25.2125 17.9854 25.309 17.9414 25.4152C17.8974 25.5213 17.8747 25.6352 17.8746 25.7501C17.8746 25.8651 17.8972 25.9789 17.9412 26.0851C17.9852 26.1913 18.0496 26.2878 18.1309 26.3691C18.2122 26.4504 18.3087 26.5148 18.4149 26.5588C18.5211 26.6028 18.6349 26.6254 18.7499 26.6254C18.8648 26.6253 18.9787 26.6026 19.0848 26.5586C19.191 26.5146 19.2875 26.45 19.3687 26.3687L22.25 23.4874L25.1313 26.3687C25.2125 26.45 25.309 26.5144 25.4152 26.5584C25.5213 26.6024 25.6351 26.625 25.75 26.625C25.8649 26.625 25.9787 26.6024 26.0848 26.5584C26.191 26.5144 26.2875 26.45 26.3687 26.3687Z" fill="#0190A3"/>
</svg>
