<svg width="558" height="541" viewBox="0 0 558 541" fill="none" xmlns="http://www.w3.org/2000/svg">
<path d="M278.15 314.45C295.22 314.4 319.97 315.04 329.64 314.45C334.03 314.18 334.48 311.44 334.47 310.92L334.38 235.83L278.15 314.45Z" fill="white"/>
<path d="M270.36 181.86L327.82 104.13L310.62 107.9L269.83 163.14L270.36 181.86Z" fill="white"/>
<path d="M270.13 224.52L334.47 137.49L334.2 107.09L269.83 194.26L270.13 224.52Z" fill="white"/>
<path d="M191.19 314.45C208.26 314.4 233.01 315.04 242.68 314.45C247.07 314.18 247.52 311.44 247.51 310.92L247.42 235.83L191.19 314.45Z" fill="white"/>
<path d="M187.46 218.73L247.52 137.49L247.33 126.78C247.29 124.42 245.1 122.68 242.79 123.17L220.94 127.86L187.52 173.11L187.46 218.73Z" fill="white"/>
<path d="M320.08 1L32.22 99.95" stroke="#103D4C" stroke-width="1.6423" stroke-linecap="round" stroke-linejoin="round"/>
<path d="M12.3401 406.42L450.86 459" stroke="#103D4C" stroke-width="1.6423" stroke-linecap="round" stroke-linejoin="round"/>
<path d="M21.0801 146.08L320.08 62.18" stroke="#103D4C" stroke-width="1.6423" stroke-linecap="round" stroke-linejoin="round"/>
<path d="M40.25 140.64L497.78 12.27" stroke="#103D4C" stroke-width="1.6423" stroke-linecap="round" stroke-linejoin="round"/>
<path d="M167.26 424.62V129.81C167.26 125.97 171.43 122.57 176.11 121.39L340.94 79.13C348.27 77.27 357.39 81.62 357.39 90.82V447.79" stroke="#103D4C" stroke-width="1.6423" stroke-linecap="round" stroke-linejoin="round"/>
<path d="M179.82 426.28V136.65C179.82 133.47 182.44 130.65 186.32 129.67L329.5 95.38C335.57 93.84 341.8 97.02 341.8 104.42L339.42 445.61" stroke="#103D4C" stroke-width="1.6423" stroke-linecap="round" stroke-linejoin="round"/>
<path d="M258.19 119.83V435.32" stroke="#103D4C" stroke-width="1.6423" stroke-linecap="round" stroke-linejoin="round"/>
<path d="M146.31 109.16V422.48" stroke="#103D4C" stroke-width="1.6423" stroke-linecap="round" stroke-linejoin="round"/>
<path d="M190.53 135.17L241.81 123.17C244.71 122.49 247.63 124.19 247.63 126.55V310.93C247.63 312.88 245.61 314.46 243.11 314.46H191.25C188.75 314.46 186.72 312.87 186.73 310.92L187.31 138.54C187.31 136.98 188.62 135.61 190.53 135.17Z" stroke="#103D4C" stroke-width="1.6423" stroke-linecap="round" stroke-linejoin="round"/>
<path d="M269.92 139.65L269.98 122.03C269.99 120.48 270.85 117.13 273.43 116.24L328.25 103.64C331.35 102.96 334.47 104.82 334.47 109.16V123.01" stroke="#103D4C" stroke-width="1.6423" stroke-linecap="round" stroke-linejoin="round"/>
<path d="M334.47 275.27V310.92C334.47 312.87 332.31 314.45 329.64 314.45H274.19C271.51 314.45 269.35 312.86 269.36 310.91L269.39 301.52L269.64 194.25" stroke="#103D4C" stroke-width="1.6423" stroke-linecap="round" stroke-linejoin="round"/>
<path d="M70.1299 319.96C82.5699 319.93 93.9599 319.76 101 319.32C104.2 319.12 106.93 315.82 108.3 313.83C108.51 313.52 111.17 308.38 111.17 308L111.1 262.66L70.1299 319.96Z" fill="white"/>
<path d="M42.67 319.79L111.05 227.29L110.94 155.53L108.4 149.35L103.83 146.08L99.93 144.54L1 282.26L1.39 309.17C1.42 311.25 2.39999 319.64 11.35 319.64C17.99 319.64 33.25 319.83 49.74 319.92L42.67 319.79Z" fill="white"/>
<path d="M531.14 321.39L541.23 69.54L377.36 297.67L377.91 305.39C377.46 321.73 394.05 321.67 408.88 321.67C419.88 321.67 430.78 321.46 458.09 321.61L531.14 321.39Z" fill="white"/>
<path d="M111.17 262.67V307.04C111.17 314.14 103.73 319.94 94.64 319.94H14.78C5.69 319.94 1 315.21 1 308.11V234.79" stroke="#103D4C" stroke-width="1.6423" stroke-linecap="round" stroke-linejoin="round"/>
<path d="M10.48 165.11L94.64 143.88C103.73 143.88 111.17 149.69 111.17 156.78V181.86" stroke="#103D4C" stroke-width="1.6423" stroke-linecap="round" stroke-linejoin="round"/>
<path d="M556.99 321.68H396.38C383.86 321.68 377.41 315.17 377.41 305.4V86.96C377.41 77.19 378.4 69.59 390.45 66.05L555.65 23.4" stroke="#103D4C" stroke-width="1.6423" stroke-linecap="round" stroke-linejoin="round"/>
<path d="M215.83 247.1C215.83 247.1 225.51 250.17 232 254.61L215.83 247.1Z" fill="white"/>
<path d="M215.83 247.1C215.83 247.1 225.51 250.17 232 254.61" stroke="#103D4C" stroke-width="1.6423" stroke-linecap="round" stroke-linejoin="round"/>
<path d="M138.62 506.21C138.62 506.21 135.48 520.3 127.99 523.51C120.5 526.71 107.6 525.17 106.65 532.63C105.7 540.09 118.11 540.51 127.42 540.75C136.74 540.98 140.71 540.76 142.33 536.75C145.85 528 144.11 538.45 145.96 539.81C147.81 541.17 150.61 540.97 153.48 540.42C156.35 539.88 156.33 533.98 157.53 531.07C158.73 528.16 160.43 522.28 154.92 516.09L156.57 506.64L138.62 506.21Z" fill="#103D4C"/>
<path d="M196.48 499.54C196.48 499.54 204.15 513.96 197.23 518.25C190.3 522.54 177.31 522.94 177.49 530.45C177.67 537.97 190 536.53 199.24 535.37C208.49 534.21 212.39 533.39 213.38 529.19C215.55 520.01 215.4 530.6 217.42 531.67C219.45 532.74 222.19 532.12 224.95 531.15C227.71 530.18 226.81 524.36 227.56 521.3C228.31 518.24 229.11 512.18 222.75 506.88L214.29 497.27L196.48 499.54Z" fill="#103D4C"/>
<path d="M135.69 282.62C135.69 282.62 153.45 411.03 158.23 419.91C163.01 428.79 165.74 503.92 169.16 507.34C172.58 510.76 226.17 510.76 238.52 503.24C244.8 499.42 206.05 407.62 206.05 393.27L201.95 282.62" fill="white"/>
<path d="M135.69 282.62C135.69 282.62 153.45 411.03 158.23 419.91C163.01 428.79 165.74 503.92 169.16 507.34C172.58 510.76 226.17 510.76 238.52 503.24C244.8 499.42 206.05 407.62 206.05 393.27L201.95 282.62" stroke="#103D4C" stroke-width="1.6423" stroke-linecap="round" stroke-linejoin="round"/>
<path d="M150.49 269.19C150.49 269.19 180.09 272.61 197.85 269.19C215.61 265.77 222.66 275.28 223.91 292.96C225.16 310.64 181.28 394.64 177.36 408.98C173.44 423.32 188.26 511.41 181.27 514.62C161.88 523.52 113.15 512.36 113.15 512.36C113.15 512.36 127.09 411 130.71 385.06C134.33 359.12 161.02 303.25 161.02 303.25" fill="white"/>
<path d="M150.49 269.19C150.49 269.19 180.09 272.61 197.85 269.19C215.61 265.77 222.66 275.28 223.91 292.96C225.16 310.64 181.28 394.64 177.36 408.98C173.44 423.32 188.26 511.41 181.27 514.62C161.88 523.52 113.15 512.36 113.15 512.36C113.15 512.36 127.09 411 130.71 385.06C134.33 359.12 161.02 303.25 161.02 303.25" stroke="#103D4C" stroke-width="1.6423" stroke-linecap="round" stroke-linejoin="round"/>
<path d="M194.14 174.04L195.15 180.67L204.51 195.75L203.71 204.21L179.23 209.17L163.35 206.31L167.67 184.04C167.67 184.04 174.49 168.4 170.12 166.3C165.75 164.2 160.92 161.28 160.92 161.28L159.56 149.29C159.78 148.15 166.95 132.98 167.96 132.39L180.78 124.76L193.19 126.36C193.19 126.36 203.8 136.87 203.74 158.11C203.7 172.04 194.14 174.04 194.14 174.04Z" fill="#FDFCFB"/>
<path d="M191.45 139.58C194.03 134.5 198.77 137.14 200.39 138.42" stroke="#103D4C" stroke-width="1.6423" stroke-linecap="round" stroke-linejoin="round"/>
<path d="M176.22 144.18C177.86 139.73 181.97 138.83 185.08 140.61" stroke="#103D4C" stroke-width="1.6423" stroke-linecap="round" stroke-linejoin="round"/>
<path d="M181.97 149.49C181.11 149.46 180.44 148.73 180.47 147.87C180.5 147.01 181.23 146.33 182.09 146.37C182.95 146.4 183.62 147.13 183.59 147.99C183.55 148.85 182.83 149.52 181.97 149.49Z" fill="#103D4C"/>
<path d="M195.18 145.01C194.36 144.98 193.72 144.29 193.75 143.47C193.78 142.65 194.47 142.01 195.29 142.04C196.11 142.07 196.75 142.76 196.72 143.58C196.69 144.4 196 145.04 195.18 145.01Z" fill="#103D4C"/>
<path d="M183.36 172.26C187.23 174.35 191.72 174.35 194.87 173.37C196.66 172.81 198.5 172.17 199.86 170.88C201.37 169.46 202.12 167.42 202.64 165.42C205.4 154.65 203.03 136.53 195.43 128.42C193.69 126.56 191.58 124.83 189.06 124.47C186.54 124.11 183.62 125.66 183.28 128.19" stroke="#103D4C" stroke-width="1.6423" stroke-linecap="round" stroke-linejoin="round"/>
<path d="M190.39 124.82C179.41 123.29 167.38 128.54 162.29 138.39C157.2 148.25 159.09 161.15 168.86 166.37" stroke="#103D4C" stroke-width="1.6423" stroke-linecap="round" stroke-linejoin="round"/>
<path d="M171.02 173.41L167.66 184.03C166.12 184.17 166.86 184.81 165.66 185.78" stroke="#103D4C" stroke-width="1.6423" stroke-linecap="round" stroke-linejoin="round"/>
<path d="M193.47 174.04C193.79 177.79 194.95 180.71 196.48 184.15" stroke="#103D4C" stroke-width="1.6423" stroke-linecap="round" stroke-linejoin="round"/>
<path d="M191.17 154.34C193.47 155.76 196.94 155.5 197.68 152.39" stroke="#103D4C" stroke-width="1.6423" stroke-linecap="round" stroke-linejoin="round"/>
<path d="M191.8 117.74C191.04 110.47 186.06 101.68 177.59 103.45C168.18 86.71 144.31 99.1 145.66 112.12C133.03 118.14 133.86 137.46 141.71 141.18C146.86 143.63 151.39 146.61 154.31 151.33C156.43 154.98 149.72 150.48 153.96 159.16C157.02 165.41 163.78 163.66 164.75 162.6C167.79 159.31 159.47 155.57 160.99 151.42C162.51 147.27 166.29 150.81 167.1 149.5C172.8 140.17 167.15 144.58 170.48 134.21C173.06 134.23 181.18 133.03 184.73 128.48C189.45 130.46 192.84 131.18 195.59 129.99C200.45 127.9 200.57 119.1 191.8 117.74Z" fill="#103D4C"/>
<path d="M191.8 117.74C182.56 116.7 173.05 124.63 167.89 131.37C162.61 138.23 158.93 144.89 157.07 152.84C156.11 157.02 151.86 156.63 150.98 153.53C145.79 154.46 142.94 151.08 142.74 145.7C142.47 138.37 148.79 128.72 156.65 121.92C165.08 114.6 182.43 107.95 190.92 110.15C195.73 111.39 196.49 118.27 191.8 117.74Z" fill="#FDFCFB" stroke="#103D4C" stroke-width="1.6423" stroke-linecap="round" stroke-linejoin="round"/>
<path d="M153.02 142.91C153.47 140.11 154.76 132.98 165.26 125.7L153.02 142.91Z" fill="#FDFCFB"/>
<path d="M153.02 142.91C153.47 140.11 154.76 132.98 165.26 125.7" stroke="#103D4C" stroke-width="1.6423" stroke-linecap="round" stroke-linejoin="round"/>
<path d="M188.01 164.11C193.03 170.56 197.97 166.87 199.81 162.36C197.98 160.23 196.12 159.71 195.23 161.41C194.53 162.28 194.49 158.51 190.42 161.48C190.18 161.65 188.98 161.73 187.48 162.07C187.08 162.13 187.61 163.48 188.01 164.11Z" fill="#103D4C"/>
<path d="M161.88 191.08C161.88 191.08 169.93 205.3 195.5 189.92L187.33 279.69L146.55 275.02L161.88 191.08Z" fill="#103D4C"/>
<path d="M235.39 284.97C235.84 288.12 236.09 290.82 236.09 292.87C236.09 309.26 257.79 420.97 267.66 454.91C277.94 490.23 267.51 486.85 255.9 488.9C244.29 490.95 215.47 499.15 205.23 498.46C194.98 497.78 158.74 490.26 158.74 490.26C158.74 490.26 177.48 370.05 173.26 325.7C170.99 301.85 174.63 254.62 178.04 238.91C181.46 223.2 194.66 179.49 194.66 179.49C194.66 179.49 220.16 178.58 231.54 203.62C242.92 228.66 255.26 259.38 251.16 270.31C247.06 281.24 246.11 285.58 228.35 285.13C210.59 284.67 182.13 272.38 182.13 272.38C182.13 272.38 180.76 271.36 184.18 264.87C187.6 258.38 189.99 242.67 189.99 242.67C189.99 242.67 213.31 245.74 215.82 247.11C215.82 247.11 213.21 237.35 212.87 232.33" fill="#FFE6B4"/>
<path d="M100.69 297.83C100.69 297.83 87.2898 308.41 80.1998 308.75C76.0898 308.95 72.5198 307.48 68.7598 309.87C64.9998 312.26 56.3498 319.28 55.3998 323.79C54.7198 327.01 59.8398 324.21 59.8398 324.21C59.8398 324.21 54.4199 326.44 55.5499 331.11C56.0999 333.36 60.8998 329.86 60.8998 329.86C60.8998 329.86 58.0799 334.78 59.1899 335.89C60.8999 337.6 66.7499 332.06 66.7499 332.06C66.7499 332.06 65.0298 334.62 65.6798 336.34C66.8798 339.53 71.0498 332.52 74.8098 330.15C75.9698 329.42 77.8598 328.34 79.7298 328C83.2698 327.34 88.2999 324.25 93.1299 319.97C94.8999 318.41 108.1 313.55 108.1 313.55" fill="white"/>
<path d="M100.69 297.83C100.69 297.83 87.2898 308.41 80.1998 308.75C76.0898 308.95 72.5198 307.48 68.7598 309.87C64.9998 312.26 56.3498 319.28 55.3998 323.79C54.7198 327.01 59.8398 324.21 59.8398 324.21C59.8398 324.21 54.4199 326.44 55.5499 331.11C56.0999 333.36 60.8998 329.86 60.8998 329.86C60.8998 329.86 58.0799 334.78 59.1899 335.89C60.8999 337.6 66.7499 332.06 66.7499 332.06C66.7499 332.06 65.0298 334.62 65.6798 336.34C66.8798 339.53 71.0498 332.52 74.8098 330.15C75.9698 329.42 77.8598 328.34 79.7298 328C83.2698 327.34 88.2999 324.25 93.1299 319.97C94.8999 318.41 108.1 313.55 108.1 313.55" stroke="#103D4C" stroke-width="1.6423" stroke-linecap="round" stroke-linejoin="round"/>
<path d="M65.6899 333.26C65.6899 333.26 69.2799 328.91 72.8599 327.03L65.6899 333.26Z" fill="white"/>
<path d="M65.6899 333.26C65.6899 333.26 69.2799 328.91 72.8599 327.03" stroke="#103D4C" stroke-width="1.6423" stroke-linecap="round" stroke-linejoin="round"/>
<path d="M59.8398 324.2C59.8398 324.2 64.0398 321.04 67.6198 319.16L59.8398 324.2Z" fill="white"/>
<path d="M59.8398 324.2C59.8398 324.2 64.0398 321.04 67.6198 319.16" stroke="#103D4C" stroke-width="1.6423" stroke-linecap="round" stroke-linejoin="round"/>
<path d="M60.8999 329.84C60.8999 329.84 64.0299 324.36 67.6199 323.43L60.8999 329.84Z" fill="white"/>
<path d="M60.8999 329.84C60.8999 329.84 64.0299 324.36 67.6199 323.43" stroke="#103D4C" stroke-width="1.6423" stroke-linecap="round" stroke-linejoin="round"/>
<path d="M85.5799 317.91C81.4799 320.38 75.2499 316.15 72.5899 315.14C70.5999 314.38 65.3199 318.4 63.9399 316.54C62.5599 314.68 64.0599 310.79 71.0599 309.07C73.2599 308.53 77.2099 308.24 84.0399 307.87" fill="white"/>
<path d="M85.5799 317.91C81.4799 320.38 75.2499 316.15 72.5899 315.14C70.5999 314.38 65.3199 318.4 63.9399 316.54C62.5599 314.68 64.0599 310.79 71.0599 309.07C73.2599 308.53 77.2099 308.24 84.0399 307.87" stroke="#103D4C" stroke-width="1.6423" stroke-linecap="round" stroke-linejoin="round"/>
<path d="M146.55 225.02C142.29 238.57 128.19 303.79 124.42 338.99C122.54 356.59 126.38 374.43 131.21 386.33C131.21 386.33 134.56 357.53 151.26 325.7C153.46 321.51 152.1 307.7 152.1 303.25C152.1 287 158.25 225.93 161.89 213.39C165.53 200.85 169.18 185.4 169.18 185.4C169.18 185.4 166.68 181.3 161.89 185.4C161.89 185.4 143.22 197.69 136.85 230.02C130.48 262.35 124.56 272.82 124.56 272.82C124.56 272.82 98.15 293.77 89.5 296.5C80.85 299.23 97.24 322.91 97.24 322.91C97.24 322.91 114.93 317.15 128.37 311.29" fill="#FFE6B4"/>
<path d="M251.17 270.31C247.07 281.24 246.12 285.58 228.36 285.13C210.6 284.67 182.14 272.38 182.14 272.38C182.14 272.38 180.77 271.36 184.19 264.87C187.61 258.38 190 242.67 190 242.67C190 242.67 213.32 245.74 215.83 247.11C215.83 247.11 213.22 237.35 212.88 232.33" stroke="#103D4C" stroke-width="1.6423" stroke-linecap="round" stroke-linejoin="round"/>
<path d="M214.44 184.73C220.73 188.21 227.18 194 231.55 203.62C236.26 213.99 241.14 225.33 244.95 235.84" stroke="#103D4C" stroke-width="1.6423" stroke-linecap="round" stroke-linejoin="round"/>
<path d="M267.67 454.9C277.95 490.22 267.52 486.84 255.91 488.89C244.3 490.94 215.48 499.14 205.24 498.45C194.99 497.77 158.75 490.25 158.75 490.25C158.75 490.25 177.49 370.04 173.27 325.69C171 301.84 174.64 254.61 178.05 238.9C181.47 223.19 194.67 179.48 194.67 179.48" stroke="#103D4C" stroke-width="1.6423" stroke-linecap="round" stroke-linejoin="round"/>
<path d="M235.39 284.97C235.84 288.12 236.09 290.82 236.09 292.87C236.09 301.67 242.34 337.95 249.66 374.91" stroke="#103D4C" stroke-width="1.6423" stroke-linecap="round" stroke-linejoin="round"/>
<path d="M148.87 199.64C144.22 206.71 139.47 216.65 136.83 230.03C130.46 262.36 124.54 272.83 124.54 272.83C124.54 272.83 98.1299 293.78 89.4799 296.51C80.8299 299.24 97.2199 322.92 97.2199 322.92C97.2199 322.92 114.91 317.16 128.35 311.3" stroke="#103D4C" stroke-width="1.6423" stroke-linecap="round" stroke-linejoin="round"/>
<path d="M146.55 225.02C142.29 238.57 128.19 303.79 124.42 338.99C122.54 356.59 126.38 374.43 131.21 386.33C131.21 386.33 134.56 357.53 151.26 325.7C153.46 321.51 152.1 307.7 152.1 303.25C152.1 287 158.25 225.93 161.89 213.39C164.87 203.12 167.86 190.89 168.84 186.81C169.1 185.73 168.65 184.57 167.68 184.04C166.47 183.38 164.53 183.16 161.89 185.41" stroke="#103D4C" stroke-width="1.6423" stroke-linecap="round" stroke-linejoin="round"/>
<path d="M196.4 306.71L225.18 302.85C225.18 302.85 219.06 283.49 215.13 271.64C211.2 259.79 202.21 245.25 200.55 244.55C198.89 243.86 202.11 238.74 208.95 246.02C215.79 253.3 230.53 290.4 233.76 297C236.99 303.6 238.11 300.32 240.83 303.08C243.54 305.84 256.12 347.13 251.93 350.82C247.74 354.51 194.42 364.79 188.6 359.32C182.79 353.85 179.97 356.18 181.8 334.84C182.4 327.79 183.78 316.75 184.02 310C184.71 290.31 185.92 274 185.92 274L193.14 277.33C193.15 277.33 191.73 289.36 196.4 306.71Z" fill="#B9DFE7" stroke="#103D4C" stroke-width="1.6423" stroke-linecap="round" stroke-linejoin="round"/>
<path d="M230.05 310C230.05 310 239.9 342.67 238.35 345.61C236.79 348.55 235.36 349.53 231.57 350.43" stroke="#103D4C" stroke-width="1.6423" stroke-linecap="round" stroke-linejoin="round"/>
<path d="M188.81 315.63C185.78 333.16 188.95 333.61 194.14 334.48C199.33 335.35 226.48 333.08 228.71 329.13C230.94 325.18 226.5 312.63 226.5 312.63" stroke="#103D4C" stroke-width="1.6423" stroke-linecap="round" stroke-linejoin="round"/>
<path d="M168.52 244.64C153.86 234.23 171.57 239.95 179.04 242.93C180.35 243.45 181.59 244.13 182.74 244.93L188.54 250.54C188.54 250.54 186.57 261.64 184.19 264.86C183.71 265.51 181.73 263.22 180.78 263C178.99 262.59 169.83 262.83 166.53 261.49C165.78 261.19 159.36 259.35 157.15 257.23C155.5 255.64 156.51 254.74 156.29 254.69C153.79 254.1 152.14 247.84 154.48 248.47C154.48 248.47 151.78 237.41 157.52 245.16C159.55 247.89 163.5 248.21 168.14 249.27C168.14 249.27 160.62 248.51 158.89 246.54C153.11 239.99 156.63 238.91 161.23 242.34C164.27 244.6 167.22 244.66 170.95 245.13C172.77 245.36 174.7 245.4 176.94 246.09" fill="white"/>
<path d="M168.52 244.64C153.86 234.23 171.57 239.95 179.04 242.93C180.35 243.45 181.59 244.13 182.74 244.93L188.54 250.54C188.54 250.54 186.57 261.64 184.19 264.86C183.71 265.51 181.73 263.22 180.78 263C178.99 262.59 169.83 262.83 166.53 261.49C165.78 261.19 159.36 259.35 157.15 257.23C155.5 255.64 156.51 254.74 156.29 254.69C153.79 254.1 152.14 247.84 154.48 248.47C154.48 248.47 151.78 237.41 157.52 245.16C159.55 247.89 163.5 248.21 168.14 249.27C168.14 249.27 160.62 248.51 158.89 246.54C153.11 239.99 156.63 238.91 161.23 242.34C164.27 244.6 167.22 244.66 170.95 245.13C172.77 245.36 174.7 245.4 176.94 246.09" stroke="#103D4C" stroke-width="1.6423" stroke-linecap="round" stroke-linejoin="round"/>
<path d="M160.85 256.61L156.29 254.69" stroke="#103D4C" stroke-width="1.6423" stroke-linecap="round" stroke-linejoin="round"/>
<path d="M161.25 252.62C161.25 252.62 156.29 251.14 154.48 248.46L161.25 252.62Z" fill="white"/>
<path d="M161.25 252.62C161.25 252.62 156.29 251.14 154.48 248.46" stroke="#103D4C" stroke-width="1.6423" stroke-linecap="round" stroke-linejoin="round"/>
<path d="M229.34 252.96C229.34 252.96 222.69 248.18 215.82 247.1L229.34 252.96Z" fill="white"/>
<path d="M229.34 252.96C229.34 252.96 222.69 248.18 215.82 247.1" stroke="#103D4C" stroke-width="1.6423" stroke-linecap="round" stroke-linejoin="round"/>
</svg>
