<svg width="226" height="219" viewBox="0 0 226 219" fill="none" xmlns="http://www.w3.org/2000/svg">
<path d="M112.876 127.529C119.767 127.509 129.757 127.767 133.661 127.529C135.433 127.42 135.615 126.314 135.611 126.104L135.574 95.7929L112.876 127.529Z" fill="white"/>
<path d="M109.732 74.0071L132.926 42.6301L125.983 44.1519L109.518 66.4504L109.732 74.0071Z" fill="white"/>
<path d="M109.639 91.2274L135.611 56.0964L135.502 43.8249L109.518 79.0125L109.639 91.2274Z" fill="white"/>
<path d="M77.7732 127.529C84.6638 127.509 94.6545 127.767 98.558 127.529C100.33 127.42 100.512 126.314 100.508 126.104L100.471 95.7929L77.7732 127.529Z" fill="white"/>
<path d="M76.2676 88.8902L100.512 56.0964L100.435 51.7731C100.419 50.8205 99.5349 50.1181 98.6024 50.3159L89.7823 52.2091L76.2918 70.4749L76.2676 88.8902Z" fill="white"/>
<path d="M129.802 1L13.6024 40.9428" stroke="#103D4C" stroke-width="0.662941" stroke-linecap="round" stroke-linejoin="round"/>
<path d="M5.57764 164.654L182.593 185.879" stroke="#103D4C" stroke-width="0.662941" stroke-linecap="round" stroke-linejoin="round"/>
<path d="M9.10559 59.5639L129.802 25.6963" stroke="#103D4C" stroke-width="0.662941" stroke-linecap="round" stroke-linejoin="round"/>
<path d="M16.844 57.3679L201.533 5.54932" stroke="#103D4C" stroke-width="0.662941" stroke-linecap="round" stroke-linejoin="round"/>
<path d="M68.1134 172.001V52.9962C68.1134 51.4461 69.7967 50.0737 71.6859 49.5973L138.222 32.5384C141.181 31.7876 144.862 33.5435 144.862 37.2573V181.354" stroke="#103D4C" stroke-width="0.662941" stroke-linecap="round" stroke-linejoin="round"/>
<path d="M73.1836 172.671V55.7573C73.1836 54.4737 74.2412 53.3353 75.8074 52.9397L133.604 39.098C136.055 38.4764 138.569 39.76 138.569 42.7472L137.609 180.474" stroke="#103D4C" stroke-width="0.662941" stroke-linecap="round" stroke-linejoin="round"/>
<path d="M104.819 48.9677V176.32" stroke="#103D4C" stroke-width="0.662941" stroke-linecap="round" stroke-linejoin="round"/>
<path d="M59.6569 44.6606V171.137" stroke="#103D4C" stroke-width="0.662941" stroke-linecap="round" stroke-linejoin="round"/>
<path d="M77.5068 55.1599L98.2069 50.3159C99.3775 50.0414 100.556 50.7276 100.556 51.6803V126.108C100.556 126.895 99.7408 127.533 98.7316 127.533H77.7975C76.7883 127.533 75.9689 126.891 75.9729 126.104L76.207 56.5202C76.207 55.8905 76.7358 55.3375 77.5068 55.1599Z" stroke="#103D4C" stroke-width="0.662941" stroke-linecap="round" stroke-linejoin="round"/>
<path d="M109.554 56.9683L109.578 49.8557C109.582 49.23 109.929 47.8777 110.971 47.5185L133.1 42.4323C134.351 42.1578 135.61 42.9086 135.61 44.6605V50.2513" stroke="#103D4C" stroke-width="0.662941" stroke-linecap="round" stroke-linejoin="round"/>
<path d="M135.61 111.714V126.104C135.61 126.891 134.739 127.529 133.661 127.529H111.277C110.196 127.529 109.324 126.887 109.328 126.1L109.34 122.31L109.441 79.0085" stroke="#103D4C" stroke-width="0.662941" stroke-linecap="round" stroke-linejoin="round"/>
<path d="M28.9053 129.753C33.9269 129.741 38.5246 129.673 41.3664 129.495C42.6582 129.414 43.7602 128.082 44.3132 127.279C44.398 127.154 45.4717 125.079 45.4717 124.925L45.4435 106.623L28.9053 129.753Z" fill="white"/>
<path d="M17.8208 129.685L45.4235 92.3456L45.3791 63.3785L44.3537 60.8838L42.509 59.5638L40.9347 58.9422L1 114.535L1.15743 125.398C1.16954 126.237 1.56513 129.624 5.17794 129.624C7.85828 129.624 14.0182 129.701 20.6747 129.737L17.8208 129.685Z" fill="white"/>
<path d="M214.999 130.331L219.072 28.6674L152.924 120.756L153.146 123.872C152.964 130.468 159.661 130.444 165.647 130.444C170.087 130.444 174.487 130.359 185.512 130.42L214.999 130.331Z" fill="white"/>
<path d="M45.4719 106.627V124.538C45.4719 127.404 42.4686 129.745 38.7993 129.745H6.56252C2.89319 129.745 1 127.836 1 124.97V95.3731" stroke="#103D4C" stroke-width="0.662941" stroke-linecap="round" stroke-linejoin="round"/>
<path d="M4.82678 67.2456L38.7993 58.6758C42.4686 58.6758 45.4719 61.0211 45.4719 63.8831V74.0071" stroke="#103D4C" stroke-width="0.662941" stroke-linecap="round" stroke-linejoin="round"/>
<path d="M225.434 130.448H160.602C155.548 130.448 152.944 127.82 152.944 123.876V35.6992C152.944 31.7553 153.344 28.6875 158.208 27.2585L224.894 10.0421" stroke="#103D4C" stroke-width="0.662941" stroke-linecap="round" stroke-linejoin="round"/>
<path d="M87.7196 100.342C87.7196 100.342 91.6271 101.581 94.2469 103.374L87.7196 100.342Z" fill="white"/>
<path d="M87.7196 100.342C87.7196 100.342 91.6271 101.581 94.2469 103.374" stroke="#103D4C" stroke-width="0.662941" stroke-linecap="round" stroke-linejoin="round"/>
<path d="M56.5526 204.936C56.5526 204.936 55.285 210.624 52.2616 211.92C49.2381 213.211 44.0308 212.59 43.6473 215.601C43.2639 218.612 48.2734 218.782 52.0315 218.879C55.7937 218.972 57.3962 218.883 58.0502 217.264C59.4711 213.732 58.7687 217.95 59.5155 218.499C60.2622 219.048 61.3925 218.968 62.551 218.746C63.7096 218.528 63.7015 216.146 64.1859 214.971C64.6703 213.797 65.3565 211.423 63.1323 208.924L63.7984 205.11L56.5526 204.936Z" fill="#103D4C"/>
<path d="M79.9086 202.244C79.9086 202.244 83.0047 208.064 80.2113 209.796C77.4139 211.528 72.1703 211.689 72.2429 214.721C72.3156 217.757 77.2928 217.175 81.0227 216.707C84.7566 216.239 86.3309 215.908 86.7305 214.212C87.6065 210.507 87.5459 214.782 88.3613 215.213C89.1808 215.645 90.2868 215.395 91.4009 215.004C92.515 214.612 92.1518 212.263 92.4545 211.027C92.7572 209.792 93.0802 207.346 90.5129 205.207L87.0978 201.327L79.9086 202.244Z" fill="#103D4C"/>
<path d="M55.3698 114.68C55.3698 114.68 62.5389 166.515 64.4684 170.1C66.3979 173.684 67.4999 204.012 68.8805 205.392C70.261 206.773 91.8935 206.773 96.8787 203.737C99.4138 202.195 83.7717 165.139 83.7717 159.346L82.1167 114.68" fill="white"/>
<path d="M55.3698 114.68C55.3698 114.68 62.5389 166.515 64.4684 170.1C66.3979 173.684 67.4999 204.012 68.8805 205.392C70.261 206.773 91.8935 206.773 96.8787 203.737C99.4138 202.195 83.7717 165.139 83.7717 159.346L82.1167 114.68" stroke="#103D4C" stroke-width="0.662941" stroke-linecap="round" stroke-linejoin="round"/>
<path d="M61.344 109.259C61.344 109.259 73.2925 110.64 80.4616 109.259C87.6307 107.879 90.4766 111.718 90.9812 118.854C91.4858 125.991 73.7729 159.899 72.1905 165.688C70.6082 171.476 76.5905 207.035 73.7689 208.331C65.9418 211.924 46.2711 207.419 46.2711 207.419C46.2711 207.419 51.8982 166.503 53.3595 156.032C54.8208 145.561 65.5946 123.008 65.5946 123.008" fill="white"/>
<path d="M61.344 109.259C61.344 109.259 73.2925 110.64 80.4616 109.259C87.6307 107.879 90.4766 111.718 90.9812 118.854C91.4858 125.991 73.7729 159.899 72.1905 165.688C70.6082 171.476 76.5905 207.035 73.7689 208.331C65.9418 211.924 46.2711 207.419 46.2711 207.419C46.2711 207.419 51.8982 166.503 53.3595 156.032C54.8208 145.561 65.5946 123.008 65.5946 123.008" stroke="#103D4C" stroke-width="0.662941" stroke-linecap="round" stroke-linejoin="round"/>
<path d="M78.964 70.8504L79.3717 73.5267L83.15 79.614L82.8271 83.029L72.9454 85.0312L66.5351 83.8767L68.279 74.887C68.279 74.887 71.032 68.5737 69.268 67.726C67.5039 66.8783 65.5542 65.6996 65.5542 65.6996L65.0052 60.8596C65.0941 60.3995 67.9883 54.2758 68.396 54.0377L73.571 50.9577L78.5805 51.6036C78.5805 51.6036 82.8634 55.8461 82.8392 64.42C82.8231 70.043 78.964 70.8504 78.964 70.8504Z" fill="#FDFCFB"/>
<path d="M77.8781 56.9401C78.9195 54.8895 80.8329 55.9551 81.4868 56.4718" stroke="#103D4C" stroke-width="0.662941" stroke-linecap="round" stroke-linejoin="round"/>
<path d="M71.7303 58.7969C72.3924 57.0006 74.0514 56.6373 75.3068 57.3558" stroke="#103D4C" stroke-width="0.662941" stroke-linecap="round" stroke-linejoin="round"/>
<path d="M74.0513 60.9404C73.7042 60.9282 73.4337 60.6336 73.4458 60.2864C73.4579 59.9393 73.7526 59.6648 74.0998 59.6809C74.4469 59.693 74.7174 59.9877 74.7053 60.3349C74.6891 60.682 74.3985 60.9525 74.0513 60.9404Z" fill="#103D4C"/>
<path d="M79.3837 59.132C79.0527 59.1199 78.7943 58.8413 78.8064 58.5103C78.8185 58.1793 79.0971 57.921 79.4281 57.9331C79.7591 57.9452 80.0174 58.2237 80.0053 58.5548C79.9932 58.8858 79.7147 59.1441 79.3837 59.132Z" fill="#103D4C"/>
<path d="M74.6124 70.1318C76.1746 70.9755 77.987 70.9755 79.2586 70.5799C79.9811 70.3538 80.7239 70.0955 81.2729 69.5747C81.8824 69.0015 82.1852 68.1781 82.3951 67.3707C83.5092 63.0232 82.5525 55.7088 79.4846 52.4351C78.7823 51.6843 77.9305 50.9859 76.9133 50.8406C75.896 50.6953 74.7173 51.321 74.5801 52.3422" stroke="#103D4C" stroke-width="0.662941" stroke-linecap="round" stroke-linejoin="round"/>
<path d="M77.4503 50.9819C73.0181 50.3643 68.162 52.4836 66.1073 56.4597C64.0527 60.4398 64.8156 65.6471 68.7594 67.7543" stroke="#103D4C" stroke-width="0.662941" stroke-linecap="round" stroke-linejoin="round"/>
<path d="M69.6312 70.5961L68.2749 74.883C67.6532 74.9395 67.9519 75.1979 67.4675 75.5894" stroke="#103D4C" stroke-width="0.662941" stroke-linecap="round" stroke-linejoin="round"/>
<path d="M78.6935 70.8503C78.8227 72.3641 79.2909 73.5428 79.9085 74.9314" stroke="#103D4C" stroke-width="0.662941" stroke-linecap="round" stroke-linejoin="round"/>
<path d="M77.7651 62.8981C78.6936 63.4713 80.0943 63.3664 80.393 62.111" stroke="#103D4C" stroke-width="0.662941" stroke-linecap="round" stroke-linejoin="round"/>
<path d="M78.0194 48.124C77.7127 45.1894 75.7024 41.6411 72.2834 42.3556C68.4849 35.5982 58.8493 40.5997 59.3943 45.8554C54.296 48.2855 54.631 56.0843 57.7998 57.5859C59.8787 58.5749 61.7073 59.7778 62.886 61.6831C63.7418 63.1565 61.0332 61.34 62.7447 64.8438C63.9799 67.3668 66.7087 66.6603 67.1003 66.2325C68.3274 64.9044 64.9689 63.3947 65.5825 61.7195C66.1961 60.0443 67.7219 61.4732 68.0489 60.9444C70.3498 57.1782 68.0691 58.9584 69.4133 54.7724C70.4547 54.7805 73.7325 54.2961 75.1655 52.4594C77.0708 53.2586 78.4393 53.5493 79.5493 53.0689C81.5112 52.2253 81.5596 48.673 78.0194 48.124Z" fill="#103D4C"/>
<path d="M78.0195 48.124C74.2896 47.7042 70.4508 50.9052 68.3678 53.6259C66.2365 56.3951 64.751 59.0835 64.0002 62.2927C63.6127 63.98 61.8971 63.8226 61.5419 62.5712C59.4468 62.9466 58.2964 61.5822 58.2156 59.4105C58.1067 56.4516 60.6578 52.5562 63.8306 49.8113C67.2336 46.8565 74.2372 44.1721 77.6643 45.0602C79.6059 45.5607 79.9127 48.3379 78.0195 48.124Z" fill="#FDFCFB" stroke="#103D4C" stroke-width="0.662941" stroke-linecap="round" stroke-linejoin="round"/>
<path d="M62.3652 58.2842C62.5469 57.154 63.0676 54.2758 67.3061 51.3371L62.3652 58.2842Z" fill="#FDFCFB"/>
<path d="M62.3652 58.2842C62.5469 57.154 63.0676 54.2758 67.3061 51.3371" stroke="#103D4C" stroke-width="0.662941" stroke-linecap="round" stroke-linejoin="round"/>
<path d="M76.4896 66.842C78.516 69.4456 80.5101 67.9561 81.2529 66.1356C80.5142 65.2757 79.7633 65.0658 79.4041 65.7521C79.1215 66.1033 79.1054 64.5814 77.4624 65.7803C77.3656 65.8489 76.8812 65.8812 76.2757 66.0185C76.1142 66.0427 76.3281 66.5877 76.4896 66.842Z" fill="#103D4C"/>
<path d="M65.9417 77.7289C65.9417 77.7289 69.1912 83.469 79.513 77.2606L76.215 113.498L59.7535 111.613L65.9417 77.7289Z" fill="#103D4C"/>
<path d="M95.6152 115.629C95.7968 116.901 95.8978 117.991 95.8978 118.818C95.8978 125.434 104.657 170.528 108.641 184.228C112.791 198.486 108.581 197.121 103.894 197.949C99.2078 198.776 87.5742 202.086 83.4406 201.808C79.3031 201.533 64.6742 198.498 64.6742 198.498C64.6742 198.498 72.2389 149.973 70.5354 132.07C69.6191 122.443 71.0884 103.378 72.4649 97.0362C73.8455 90.6946 79.1739 73.0504 79.1739 73.0504C79.1739 73.0504 89.4674 72.683 94.0611 82.7908C98.6548 92.8986 103.636 105.299 101.981 109.711C100.326 114.123 99.9425 115.875 92.7734 115.694C85.6043 115.508 74.1159 110.547 74.1159 110.547C74.1159 110.547 73.5629 110.135 74.9435 107.515C76.324 104.896 77.2888 98.554 77.2888 98.554C77.2888 98.554 86.7022 99.7932 87.7155 100.346C87.7155 100.346 86.6619 96.4065 86.5246 94.3801" fill="#FFE6B4"/>
<path d="M41.2415 120.82C41.2415 120.82 35.8323 125.091 32.9704 125.228C31.3113 125.309 29.8702 124.716 28.3524 125.68C26.8346 126.645 23.3429 129.479 22.9594 131.299C22.6849 132.599 24.7517 131.469 24.7517 131.469C24.7517 131.469 22.5638 132.369 23.02 134.254C23.242 135.162 25.1796 133.75 25.1796 133.75C25.1796 133.75 24.0413 135.736 24.4893 136.184C25.1796 136.874 27.541 134.638 27.541 134.638C27.541 134.638 26.8467 135.671 27.1091 136.365C27.5935 137.653 29.2768 134.823 30.7946 133.867C31.2628 133.572 32.0258 133.136 32.7806 132.999C34.2096 132.732 36.2401 131.485 38.1898 129.757C38.9043 129.128 44.2326 127.166 44.2326 127.166" fill="white"/>
<path d="M41.2415 120.82C41.2415 120.82 35.8323 125.091 32.9704 125.228C31.3113 125.309 29.8702 124.716 28.3524 125.68C26.8346 126.645 23.3429 129.479 22.9594 131.299C22.6849 132.599 24.7517 131.469 24.7517 131.469C24.7517 131.469 22.5638 132.369 23.02 134.254C23.242 135.162 25.1796 133.75 25.1796 133.75C25.1796 133.75 24.0413 135.736 24.4893 136.184C25.1796 136.874 27.541 134.638 27.541 134.638C27.541 134.638 26.8467 135.671 27.1091 136.365C27.5935 137.653 29.2768 134.823 30.7946 133.867C31.2628 133.572 32.0258 133.136 32.7806 132.999C34.2096 132.732 36.2401 131.485 38.1898 129.757C38.9043 129.128 44.2326 127.166 44.2326 127.166" stroke="#103D4C" stroke-width="0.662941" stroke-linecap="round" stroke-linejoin="round"/>
<path d="M27.1132 135.122C27.1132 135.122 28.5623 133.366 30.0074 132.607L27.1132 135.122Z" fill="white"/>
<path d="M27.1132 135.122C27.1132 135.122 28.5623 133.366 30.0074 132.607" stroke="#103D4C" stroke-width="0.662941" stroke-linecap="round" stroke-linejoin="round"/>
<path d="M24.7517 131.465C24.7517 131.465 26.4471 130.189 27.8922 129.43L24.7517 131.465Z" fill="white"/>
<path d="M24.7517 131.465C24.7517 131.465 26.4471 130.189 27.8922 129.43" stroke="#103D4C" stroke-width="0.662941" stroke-linecap="round" stroke-linejoin="round"/>
<path d="M25.1796 133.742C25.1796 133.742 26.443 131.53 27.8922 131.154L25.1796 133.742Z" fill="white"/>
<path d="M25.1796 133.742C25.1796 133.742 26.443 131.53 27.8922 131.154" stroke="#103D4C" stroke-width="0.662941" stroke-linecap="round" stroke-linejoin="round"/>
<path d="M35.1421 128.926C33.487 129.923 30.9722 128.215 29.8984 127.808C29.0951 127.501 26.9638 129.124 26.4067 128.373C25.8497 127.622 26.4552 126.052 29.2808 125.357C30.1689 125.139 31.7634 125.022 34.5204 124.873" fill="white"/>
<path d="M35.1421 128.926C33.487 129.923 30.9722 128.215 29.8984 127.808C29.0951 127.501 26.9638 129.124 26.4067 128.373C25.8497 127.622 26.4552 126.052 29.2808 125.357C30.1689 125.139 31.7634 125.022 34.5204 124.873" stroke="#103D4C" stroke-width="0.662941" stroke-linecap="round" stroke-linejoin="round"/>
<path d="M59.7536 91.4292C58.034 96.8989 52.3423 123.226 50.8205 137.435C50.0616 144.54 51.6117 151.741 53.5614 156.545C53.5614 156.545 54.9137 144.919 61.6549 132.07C62.5429 130.379 61.994 124.804 61.994 123.008C61.994 116.448 64.4765 91.7966 65.9458 86.7346C67.4152 81.6726 68.8886 75.436 68.8886 75.436C68.8886 75.436 67.8794 73.781 65.9458 75.436C65.9458 75.436 58.4094 80.397 55.838 93.4476C53.2667 106.498 50.877 110.724 50.877 110.724C50.877 110.724 40.2162 119.181 36.7245 120.283C33.2327 121.385 39.8488 130.944 39.8488 130.944C39.8488 130.944 46.9897 128.619 52.415 126.254" fill="#FFE6B4"/>
<path d="M101.985 109.711C100.33 114.123 99.9466 115.875 92.7775 115.694C85.6084 115.508 74.12 110.547 74.12 110.547C74.12 110.547 73.567 110.135 74.9475 107.515C76.3281 104.896 77.2928 98.554 77.2928 98.554C77.2928 98.554 86.7063 99.7933 87.7195 100.346C87.7195 100.346 86.666 96.4065 86.5287 94.3801" stroke="#103D4C" stroke-width="0.662941" stroke-linecap="round" stroke-linejoin="round"/>
<path d="M87.1584 75.1655C89.6975 76.5703 92.3012 78.9075 94.0652 82.7908C95.9664 86.9768 97.9363 91.5543 99.4743 95.7969" stroke="#103D4C" stroke-width="0.662941" stroke-linecap="round" stroke-linejoin="round"/>
<path d="M108.646 184.224C112.795 198.482 108.585 197.117 103.899 197.945C99.212 198.772 87.5783 202.082 83.4448 201.804C79.3072 201.529 64.6783 198.494 64.6783 198.494C64.6783 198.494 72.2431 149.969 70.5396 132.066C69.6233 122.439 71.0926 103.374 72.4691 97.0322C73.8496 90.6906 79.178 73.0463 79.178 73.0463" stroke="#103D4C" stroke-width="0.662941" stroke-linecap="round" stroke-linejoin="round"/>
<path d="M95.6152 115.629C95.7969 116.901 95.8978 117.99 95.8978 118.818C95.8978 122.37 98.4207 137.015 101.376 151.935" stroke="#103D4C" stroke-width="0.662941" stroke-linecap="round" stroke-linejoin="round"/>
<path d="M60.6901 81.1842C58.8131 84.0382 56.8957 88.0506 55.83 93.4517C53.2586 106.502 50.8689 110.729 50.8689 110.729C50.8689 110.729 40.2081 119.185 36.7164 120.287C33.2247 121.389 39.8408 130.948 39.8408 130.948C39.8408 130.948 46.9816 128.623 52.4069 126.258" stroke="#103D4C" stroke-width="0.662941" stroke-linecap="round" stroke-linejoin="round"/>
<path d="M59.7535 91.4293C58.0338 96.8989 52.3421 123.226 50.8203 137.435C50.0614 144.54 51.6115 151.741 53.5612 156.545C53.5612 156.545 54.9135 144.919 61.6547 132.07C62.5428 130.379 61.9938 124.804 61.9938 123.008C61.9938 116.448 64.4764 91.7966 65.9457 86.7346C67.1486 82.589 68.3556 77.6522 68.7512 76.0052C68.8561 75.5692 68.6745 75.101 68.2829 74.887C67.7945 74.6206 67.0114 74.5318 65.9457 75.4401" stroke="#103D4C" stroke-width="0.662941" stroke-linecap="round" stroke-linejoin="round"/>
<path d="M79.8764 124.405L91.4939 122.847C91.4939 122.847 89.0234 115.032 87.437 110.248C85.8506 105.465 82.2217 99.5955 81.5516 99.3129C80.8815 99.0344 82.1813 96.9676 84.9424 99.9063C87.7034 102.845 93.6535 117.821 94.9573 120.485C96.2612 123.149 96.7133 121.825 97.8112 122.939C98.9052 124.054 103.983 140.721 102.292 142.21C100.601 143.7 79.0771 147.85 76.7278 145.642C74.3825 143.434 73.2441 144.374 73.9828 135.76C74.225 132.914 74.7821 128.458 74.879 125.733C75.1575 117.785 75.6459 111.201 75.6459 111.201L78.5604 112.545C78.5644 112.545 77.9912 117.401 79.8764 124.405Z" fill="#B9DFE7" stroke="#103D4C" stroke-width="0.662941" stroke-linecap="round" stroke-linejoin="round"/>
<path d="M93.4597 125.733C93.4597 125.733 97.4358 138.921 96.8101 140.107C96.1804 141.294 95.6032 141.69 94.0733 142.053" stroke="#103D4C" stroke-width="0.662941" stroke-linecap="round" stroke-linejoin="round"/>
<path d="M76.8125 128.005C75.5894 135.082 76.869 135.263 78.9641 135.615C81.0591 135.966 92.0186 135.049 92.9188 133.455C93.819 131.861 92.0267 126.794 92.0267 126.794" stroke="#103D4C" stroke-width="0.662941" stroke-linecap="round" stroke-linejoin="round"/>
<path d="M68.6221 99.3491C62.7043 95.1469 69.8533 97.4559 72.8687 98.6588C73.3975 98.8687 73.898 99.1432 74.3622 99.4662L76.7035 101.731C76.7035 101.731 75.9083 106.211 74.9475 107.511C74.7538 107.774 73.9545 106.849 73.571 106.76C72.8485 106.595 69.1509 106.692 67.8188 106.151C67.516 106.03 64.9245 105.287 64.0324 104.431C63.3664 103.789 63.7741 103.426 63.6852 103.406C62.6761 103.168 62.01 100.641 62.9546 100.895C62.9546 100.895 61.8647 96.4306 64.1818 99.559C65.0012 100.661 66.5957 100.79 68.4687 101.218C68.4687 101.218 65.4331 100.911 64.7348 100.116C62.4016 97.472 63.8225 97.0361 65.6794 98.4207C66.9065 99.333 68.0973 99.3572 69.603 99.5469C70.3377 99.6397 71.1167 99.6559 72.0209 99.9344" fill="white"/>
<path d="M68.6221 99.3491C62.7043 95.1469 69.8533 97.4559 72.8687 98.6588C73.3975 98.8687 73.898 99.1432 74.3622 99.4662L76.7035 101.731C76.7035 101.731 75.9083 106.211 74.9475 107.511C74.7538 107.774 73.9545 106.849 73.571 106.76C72.8485 106.595 69.1509 106.692 67.8188 106.151C67.516 106.03 64.9245 105.287 64.0324 104.431C63.3664 103.789 63.7741 103.426 63.6852 103.406C62.6761 103.168 62.01 100.641 62.9546 100.895C62.9546 100.895 61.8647 96.4306 64.1818 99.559C65.0012 100.661 66.5957 100.79 68.4687 101.218C68.4687 101.218 65.4331 100.911 64.7348 100.116C62.4016 97.472 63.8225 97.0361 65.6794 98.4207C66.9065 99.333 68.0973 99.3572 69.603 99.5469C70.3377 99.6397 71.1167 99.6559 72.0209 99.9344" stroke="#103D4C" stroke-width="0.662941" stroke-linecap="round" stroke-linejoin="round"/>
<path d="M65.5259 104.181L63.6852 103.406" stroke="#103D4C" stroke-width="0.662941" stroke-linecap="round" stroke-linejoin="round"/>
<path d="M65.6873 102.57C65.6873 102.57 63.6851 101.973 62.9545 100.891L65.6873 102.57Z" fill="white"/>
<path d="M65.6873 102.57C65.6873 102.57 63.6851 101.973 62.9545 100.891" stroke="#103D4C" stroke-width="0.662941" stroke-linecap="round" stroke-linejoin="round"/>
<path d="M93.173 102.708C93.173 102.708 90.4886 100.778 87.7155 100.342L93.173 102.708Z" fill="white"/>
<path d="M93.173 102.708C93.173 102.708 90.4886 100.778 87.7155 100.342" stroke="#103D4C" stroke-width="0.662941" stroke-linecap="round" stroke-linejoin="round"/>
</svg>
