<svg width="105" height="105" viewBox="0 0 105 105" fill="none" xmlns="http://www.w3.org/2000/svg">
<path fill-rule="evenodd" clip-rule="evenodd" d="M7.77724 17.6612C7.97932 16.6787 7.33854 15.6766 6.34423 15.4229C5.24735 15.1424 4.14402 14.8778 3.03189 14.6267C2.03142 14.4003 1.08164 15.0187 0.908345 16.0076C0.735048 16.9964 1.40395 17.9799 2.4033 18.2074C3.47972 18.4496 4.54968 18.7076 5.61084 18.9791C6.60516 19.2328 7.57516 18.6436 7.77724 17.6612ZM21.8843 22.5311C22.2215 21.5922 21.7173 20.5193 20.7608 20.1338C18.4232 19.1926 16.0452 18.327 13.6258 17.5382C12.648 17.2185 11.6374 17.7403 11.3684 18.7026C11.1006 19.6661 11.6748 20.7043 12.6525 21.024C14.99 21.7867 17.2871 22.6226 19.5437 23.532C20.5003 23.9175 21.5483 23.4688 21.8843 22.5311ZM35.2507 29.3192C35.7212 28.4468 35.3759 27.3208 34.4765 26.8029C32.27 25.5332 30.0208 24.3391 27.7279 23.2262C26.7982 22.7739 25.716 23.1439 25.3128 24.0501C24.9086 24.9597 25.3345 26.0615 26.2653 26.5127C28.4748 27.5868 30.6427 28.7376 32.7714 29.9628C33.6696 30.4796 34.7791 30.1927 35.2507 29.3192ZM47.5646 37.919C48.162 37.1312 47.9796 35.974 47.1595 35.3368C45.1326 33.7605 43.0655 32.2622 40.9546 30.8428C40.0936 30.2629 38.9614 30.4668 38.4258 31.3009C37.8902 32.1326 38.1547 33.276 39.0156 33.8559C41.0508 35.2264 43.0456 36.6702 45.0012 38.1908C45.8202 38.8291 46.9695 38.7069 47.5646 37.919ZM58.6708 48.1285C59.3737 47.435 59.3501 46.2716 58.6189 45.5314C56.8074 43.6999 54.9566 41.9405 53.0642 40.2556C52.2874 39.5635 51.1302 39.6042 50.4778 40.3459C49.8254 41.0877 49.9255 42.2496 50.7024 42.9417C52.5315 44.5701 54.3224 46.2718 56.074 48.0434C56.8052 48.7836 57.9679 48.822 58.6708 48.1285ZM68.434 59.5892C69.2218 58.9918 69.3406 57.8435 68.7011 57.0234C67.1145 54.9928 65.4918 53.0311 63.8309 51.136C63.1454 50.3524 61.9843 50.2419 61.2356 50.8873C60.4879 51.5339 60.4381 52.6908 61.1246 53.4732C62.7349 55.3133 64.3114 57.2177 65.8508 59.1898C66.4913 60.0088 67.6473 60.1878 68.434 59.5892ZM76.9143 72.0156C77.7651 71.5079 78.0047 70.3846 77.4519 69.506C76.0823 67.3312 74.6765 65.2161 73.238 63.1619C72.6436 62.3109 71.495 62.068 70.6751 62.62C69.8529 63.1719 69.6709 64.3105 70.2665 65.1604C71.6682 67.1621 73.0359 69.2235 74.3732 71.346C74.9261 72.2246 76.0635 72.5232 76.9143 72.0156ZM84.9912 82.8875L84.9448 82.7787L84.298 81.4136L84.2606 81.3405C83.3128 79.5361 82.344 77.7643 81.3568 76.0298C80.8434 75.1282 79.7194 74.7761 78.8435 75.2431C77.9687 75.7089 77.6749 76.8159 78.1872 77.7186C78.9597 79.0755 79.7203 80.4562 80.4699 81.8572L81.014 82.8831L81.6391 84.2064C82.0643 85.1045 83.0967 85.5435 83.9868 85.2269L84.0933 85.1839C84.9703 84.8051 85.3571 83.7955 84.9912 82.8875ZM91.8023 101.47L92.0075 98.2421L93.2663 78.3988C93.3293 77.391 92.5616 76.4805 91.5491 76.3625C90.5791 76.2513 89.7368 76.9103 89.6114 77.8512L89.5998 77.9756L88.7812 90.8846L88.1489 89.5473C87.7056 88.6133 86.608 88.1737 85.6936 88.5687C84.8165 88.9475 84.4309 89.9583 84.7968 90.8663L84.8432 90.9751L85.4766 92.3112L74.788 84.373C73.9874 83.7776 72.9008 83.8911 72.305 84.6114L72.2331 84.7046C71.6799 85.4764 71.8492 86.5692 72.6017 87.2034L72.6987 87.2804L89.1307 99.4853L91.8023 101.47Z" fill="white"/>
</svg>
