<svg width="38" height="38" viewBox="0 0 38 38" fill="none" xmlns="http://www.w3.org/2000/svg">
<circle cx="19" cy="19" r="19" transform="rotate(-180 19 19)" fill="white"/>
<path d="M27 20C27.5523 20 28 19.5523 28 19C28 18.4477 27.5523 18 27 18L27 20ZM11.2929 18.2929C10.9024 18.6834 10.9024 19.3166 11.2929 19.7071L17.6569 26.0711C18.0474 26.4616 18.6805 26.4616 19.0711 26.0711C19.4616 25.6805 19.4616 25.0474 19.0711 24.6569L13.4142 19L19.0711 13.3431C19.4616 12.9526 19.4616 12.3195 19.0711 11.9289C18.6805 11.5384 18.0474 11.5384 17.6569 11.9289L11.2929 18.2929ZM27 18L12 18L12 20L27 20L27 18Z" fill="#0F3D4C"/>
</svg>
